<?xml version="1.0" standalone="no"?>
<!DOCTYPE svg PUBLIC "-//W3C//DTD SVG 20010904//EN"
 "http://www.w3.org/TR/2001/REC-SVG-20010904/DTD/svg10.dtd">
<svg version="1.0" xmlns="http://www.w3.org/2000/svg"
 width="350.000000pt" height="350.000000pt" viewBox="0 0 350.000000 350.000000"
 preserveAspectRatio="xMidYMid meet">
<metadata>
Created by potrace 1.14, written by Peter Selinger 2001-2017
</metadata>
<g transform="translate(0.000000,350.000000) scale(0.100000,-0.100000)"
fill="#000000" stroke="none">
<path d="M1516 3274 c-771 -120 -1336 -777 -1336 -1554 0 -592 325 -1125 850
-1394 203 -104 407 -161 618 -173 96 -6 102 -5 102 13 0 11 -10 24 -22 29 -31
14 -38 65 -9 65 12 0 21 -8 24 -22 4 -20 4 -19 6 5 0 15 -3 27 -9 27 -5 0 -10
7 -10 15 0 8 5 15 10 15 6 0 9 10 9 23 -1 16 -2 18 -6 5 -2 -10 -13 -18 -24
-18 -29 0 -24 38 6 52 14 6 25 19 25 30 0 15 -8 18 -52 18 -73 0 -217 25 -320
54 -198 58 -401 179 -553 331 -180 181 -300 400 -356 655 -34 150 -34 390 0
540 23 107 69 237 114 327 77 151 248 355 371 443 l49 35 -47 3 c-55 4 -60 21
-21 82 26 41 32 70 15 70 -5 0 -10 -7 -10 -15 0 -8 -9 -15 -20 -15 -14 0 -18
5 -13 18 11 29 25 42 47 42 48 0 61 -52 26 -105 -25 -38 -25 -45 0 -45 11 0
20 -7 20 -15 0 -8 2 -15 3 -15 2 0 40 22 85 49 175 105 434 181 618 181 l44 0
0 83 0 82 -24 -40 c-24 -38 -24 -40 -5 -43 10 -2 19 -10 19 -18 0 -10 -13 -14
-45 -14 -54 0 -55 7 -15 75 32 54 35 65 20 65 -5 0 -10 -7 -10 -15 0 -8 -9
-15 -20 -15 -13 0 -20 7 -20 18 0 40 54 57 84 26 15 -14 16 -12 16 20 l0 36
-72 -1 c-40 -1 -113 -7 -162 -15z m-166 -109 c0 -9 -9 -15 -25 -15 -14 0 -25
-5 -25 -11 0 -6 8 -8 19 -4 28 9 43 -18 39 -72 -3 -46 -4 -48 -36 -51 -38 -4
-62 12 -62 39 0 12 7 19 20 19 11 0 20 -6 20 -14 0 -8 5 -18 10 -21 6 -4 10 9
10 33 0 37 -1 38 -30 34 -29 -4 -30 -3 -30 37 l0 41 45 0 c33 0 45 -4 45 -15z
m-460 -275 c0 -83 -1 -90 -20 -90 -18 0 -20 7 -20 60 0 46 -4 61 -17 69 -10 5
-16 11 -13 14 18 14 56 37 62 37 5 0 8 -40 8 -90z m-271 -254 c7 -9 11 -41 9
-83 l-3 -68 -33 -3 c-32 -3 -62 11 -62 29 0 13 34 11 48 -3 9 -9 12 -7 12 9 0
16 -7 22 -27 25 -24 3 -28 8 -31 41 -2 21 2 45 9 53 15 18 63 18 78 0z m-269
-461 c0 -78 -2 -85 -20 -85 -18 0 -20 7 -20 60 0 45 -4 62 -15 66 -21 9 -19
19 8 32 44 21 47 17 47 -73z m112 18 c3 -38 3 -76 0 -85 -5 -22 -40 -24 -48
-3 -4 8 -17 15 -30 15 -32 0 -31 11 11 128 2 6 17 12 34 12 28 0 29 -1 33 -67z
m-160 -428 c2 -25 2 -65 0 -91 -3 -35 -8 -44 -21 -42 -12 2 -17 17 -19 58 -2
37 -8 59 -20 69 -11 8 -13 15 -6 18 6 2 20 10 30 18 29 22 32 19 36 -30z m83
-46 c0 -77 -2 -84 -20 -84 -18 0 -20 8 -23 63 -2 46 -7 62 -17 62 -8 0 -15 3
-15 8 0 10 53 41 65 38 6 -2 10 -39 10 -87z m20 -363 c15 -11 20 -28 21 -77 3
-71 -6 -89 -45 -89 -44 0 -50 10 -49 88 0 56 4 75 17 82 22 13 34 12 56 -4z
m155 -491 c0 -78 -2 -85 -20 -85 -18 0 -20 7 -20 60 0 47 -3 60 -15 60 -22 0
-18 15 8 33 42 30 47 23 47 -68z m118 63 c2 -13 -3 -18 -17 -18 -12 0 -21 5
-21 10 0 6 -4 10 -10 10 -5 0 -10 -9 -10 -19 0 -14 8 -21 28 -23 23 -3 27 -8
30 -41 2 -21 -2 -45 -9 -53 -14 -17 -61 -18 -77 -2 -16 16 -16 130 0 146 19
19 82 11 86 -10z m272 -315 c0 -16 -7 -51 -25 -130 -3 -15 -13 -23 -25 -23
-11 0 -20 3 -20 8 1 9 19 91 26 115 4 12 0 17 -15 17 -12 0 -21 7 -21 15 0 11
11 15 40 15 32 0 40 -4 40 -17z m434 -189 c19 -19 22 -134 4 -152 -15 -15 -61
-15 -76 0 -18 18 -14 38 8 38 11 0 20 -4 20 -10 0 -5 5 -10 10 -10 6 0 10 8
10 18 0 13 -8 18 -27 17 -26 0 -28 3 -31 45 -3 33 1 47 14 57 24 17 49 16 68
-3z m-104 -79 c0 -78 -2 -85 -20 -85 -18 0 -20 7 -20 60 0 45 -4 62 -15 66
-21 9 -19 19 8 32 44 21 47 17 47 -73z"/>
<path d="M570 2596 c0 -14 5 -28 10 -31 6 -4 10 7 10 24 0 17 -4 31 -10 31 -5
0 -10 -11 -10 -24z"/>
<path d="M402 2170 c0 -14 2 -19 5 -12 2 6 2 18 0 25 -3 6 -5 1 -5 -13z"/>
<path d="M372 1320 c0 -14 2 -19 5 -12 2 6 2 18 0 25 -3 6 -5 1 -5 -13z"/>
<path d="M370 1245 c0 -15 4 -24 10 -20 6 3 10 12 10 20 0 8 -4 17 -10 20 -6
4 -10 -5 -10 -20z"/>
<path d="M620 840 c0 -16 5 -30 10 -30 6 0 10 14 10 30 0 17 -4 30 -10 30 -5
0 -10 -13 -10 -30z"/>
<path d="M1340 380 c0 -16 5 -30 10 -30 6 0 10 14 10 30 0 17 -4 30 -10 30 -5
0 -10 -13 -10 -30z"/>
<path d="M1760 3260 c0 -27 3 -31 12 -22 7 7 24 12 38 12 40 0 50 -18 50 -86
0 -74 -17 -99 -59 -89 -14 4 -29 12 -33 18 -4 7 -8 -4 -8 -24 l0 -36 88 -6
c224 -16 444 -92 637 -218 101 -66 286 -250 352 -349 102 -152 167 -307 204
-483 31 -144 31 -370 0 -514 -37 -176 -103 -332 -204 -483 -67 -100 -252 -284
-352 -349 -196 -128 -411 -202 -635 -218 -86 -6 -90 -7 -90 -29 0 -14 6 -24
14 -24 18 0 23 -19 25 -92 1 -48 -2 -60 -19 -70 -11 -7 -20 -21 -20 -32 0 -18
6 -19 103 -13 308 17 630 143 877 342 582 469 754 1271 417 1941 -104 206
-325 456 -517 583 -240 160 -511 253 -777 268 l-103 6 0 -33z m480 -170 c0
-83 -1 -90 -20 -90 -18 0 -20 7 -20 60 0 46 -4 61 -17 69 -10 5 -16 11 -13 14
18 14 56 37 62 37 5 0 8 -40 8 -90z m330 -195 c0 -78 -2 -85 -20 -85 -18 0
-20 7 -20 60 0 47 -3 60 -15 60 -8 0 -15 3 -15 8 0 7 49 39 63 41 4 1 7 -37 7
-84z m108 73 c5 -7 10 -44 10 -81 1 -63 -1 -69 -23 -79 -19 -8 -31 -8 -50 0
-23 11 -24 16 -23 79 2 78 10 93 48 93 15 0 32 -6 38 -12z m284 -375 c3 -38 3
-76 0 -85 -5 -22 -42 -24 -42 -3 0 9 -9 15 -25 15 -30 0 -33 24 -9 93 14 41
19 47 44 47 27 0 28 -1 32 -67z m138 -418 c0 -78 -2 -85 -20 -85 -18 0 -20 7
-20 60 0 47 -3 60 -15 60 -22 0 -18 15 8 33 42 30 47 23 47 -68z m107 73 c14
-18 15 -129 2 -145 -14 -16 -61 -17 -77 -1 -20 20 -15 58 8 58 13 0 20 -7 20
-20 0 -11 5 -20 10 -20 17 0 11 38 -7 49 -17 10 -17 12 0 25 19 14 23 36 7 36
-5 0 -10 -4 -10 -10 0 -5 -9 -10 -20 -10 -20 0 -28 28 -13 43 11 12 70 8 80
-5z m24 -448 c25 -14 25 -40 -1 -40 -11 0 -20 5 -20 10 0 6 -4 10 -10 10 -5 0
-10 -9 -10 -20 0 -13 5 -18 15 -14 42 16 66 -84 26 -106 -56 -29 -83 -3 -83
82 0 48 4 65 18 75 22 16 39 16 65 3z m-20 -451 c18 -18 21 -30 17 -81 -5 -62
-15 -78 -53 -78 -35 0 -45 20 -45 92 0 53 4 69 18 77 26 15 40 13 63 -10z
m-101 -74 c0 -78 -2 -85 -20 -85 -18 0 -20 7 -20 60 0 46 -4 61 -17 69 -17 9
-17 11 2 25 11 8 28 16 38 16 15 0 17 -11 17 -85z m-210 -396 c0 -81 -2 -90
-17 -87 -15 3 -19 16 -21 66 -2 46 -7 62 -17 62 -8 0 -15 3 -15 8 0 7 49 39
63 41 4 1 7 -40 7 -90z m118 74 c2 -9 -7 -13 -27 -13 -19 0 -31 -5 -31 -13 0
-7 12 -13 28 -12 25 0 27 -3 30 -48 2 -27 -2 -55 -9 -63 -26 -31 -89 -6 -89
37 0 12 7 19 20 19 13 0 20 -7 20 -20 0 -11 5 -20 10 -20 6 0 10 16 10 35 0
33 -1 34 -30 29 -29 -6 -30 -6 -30 33 0 22 3 43 7 47 12 11 86 2 91 -11z
m-380 -325 c18 -18 15 -53 -8 -90 -25 -42 -25 -48 1 -48 37 0 14 -25 -26 -28
-56 -5 -61 8 -26 70 32 57 38 78 21 78 -5 0 -10 -7 -10 -15 0 -8 -9 -15 -21
-15 -17 0 -19 4 -13 23 4 12 12 25 18 29 17 12 51 9 64 -4z m-458 -283 c0 -78
-2 -85 -20 -85 -18 0 -20 7 -20 60 0 47 -3 60 -15 60 -22 0 -18 15 8 33 42 30
47 23 47 -68z m95 48 c-21 -118 -27 -133 -46 -133 -22 0 -23 7 -5 83 l13 57
-23 0 c-15 0 -24 6 -24 15 0 11 12 15 46 15 l46 0 -7 -37z"/>
<path d="M2630 2935 c0 -8 5 -15 10 -15 6 0 10 7 10 15 0 8 -4 15 -10 15 -5 0
-10 -7 -10 -15z"/>
<path d="M2630 2855 c0 -14 5 -25 10 -25 6 0 10 11 10 25 0 14 -4 25 -10 25
-5 0 -10 -11 -10 -25z"/>
<path d="M2907 2586 c-4 -15 -6 -31 -2 -34 10 -10 16 6 13 35 l-3 28 -8 -29z"/>
<path d="M3190 1685 c0 -14 5 -25 10 -25 6 0 10 11 10 25 0 14 -4 25 -10 25
-5 0 -10 -11 -10 -25z"/>
<path d="M3173 1280 c0 -36 2 -50 4 -32 2 17 2 47 0 65 -2 17 -4 3 -4 -33z"/>
<path d="M1800 3160 c0 -33 4 -60 10 -60 6 0 10 27 10 60 0 33 -4 60 -10 60
-6 0 -10 -27 -10 -60z"/>
<path d="M1608 3013 c-43 -4 -48 -7 -48 -28 l0 -25 138 3 c75 1 162 0 192 -3
53 -4 55 -3 55 20 0 22 -5 26 -50 32 -52 7 -206 7 -287 1z"/>
<path d="M1435 2916 c-73 -19 -217 -75 -232 -90 -3 -2 37 -86 87 -186 76 -152
94 -181 108 -174 50 22 180 64 201 64 19 0 22 4 18 23 -3 12 -18 104 -33 205
-23 145 -31 182 -44 182 -8 -1 -55 -11 -105 -24z"/>
<path d="M1920 2740 c-17 -111 -30 -203 -28 -204 1 -1 28 -8 58 -15 30 -6 82
-23 114 -36 33 -13 61 -23 62 -22 10 13 185 359 183 361 -28 25 -235 98 -315
111 l-41 6 -33 -201z"/>
<path d="M1070 2825 c-77 -48 -182 -128 -214 -164 -18 -20 -18 -23 -4 -37 15
-15 23 -11 95 48 43 35 113 85 155 112 68 42 76 50 67 67 -5 10 -13 19 -17 19
-4 0 -41 -20 -82 -45z"/>
<path d="M2336 2854 c-10 -25 -7 -32 14 -39 32 -10 162 -99 224 -154 56 -50
59 -51 78 -34 19 17 18 18 -29 60 -59 53 -249 183 -267 183 -8 0 -17 -7 -20
-16z"/>
<path d="M829 2543 c-93 -100 -185 -246 -166 -261 7 -5 89 -48 184 -96 l171
-85 27 45 c14 25 47 70 72 101 l45 56 -144 144 -144 144 -45 -48z"/>
<path d="M2491 2446 l-144 -145 35 -43 c19 -24 52 -69 72 -101 l37 -58 180 93
c98 51 179 97 179 103 0 19 -115 187 -167 243 l-48 53 -144 -145z"/>
<path d="M1688 2533 c-58 -4 -63 -8 -52 -37 5 -13 25 -16 120 -16 l114 0 0 25
c0 23 -3 25 -49 25 -27 0 -55 1 -63 3 -7 2 -39 1 -70 0z"/>
<path d="M1530 2441 c-77 -26 -111 -43 -108 -55 2 -6 63 -129 136 -274 117
-231 151 -286 167 -271 3 4 -76 521 -91 592 -7 32 -25 34 -104 8z"/>
<path d="M1875 2448 c-4 -13 -95 -587 -95 -600 0 -5 6 -8 14 -8 9 0 71 110
155 274 78 151 141 276 141 279 0 11 -165 67 -198 67 -7 0 -14 -6 -17 -12z"/>
<path d="M1309 2403 c-31 -21 -73 -52 -94 -70 -34 -29 -36 -33 -22 -47 21 -21
30 -20 53 5 10 11 49 41 86 65 59 40 67 48 58 65 -6 10 -14 19 -18 19 -4 0
-33 -17 -63 -37z"/>
<path d="M2116 2424 c-10 -25 -7 -32 14 -39 11 -3 52 -31 91 -61 65 -50 73
-54 87 -40 14 14 14 17 -4 37 -26 29 -154 119 -169 119 -7 0 -16 -7 -19 -16z"/>
<path d="M574 2269 c-28 -56 -65 -161 -85 -247 -17 -69 -18 -86 -7 -93 28 -18
37 -7 53 69 9 42 35 124 57 181 33 84 38 105 27 112 -22 14 -27 11 -45 -22z"/>
<path d="M2888 2290 c-15 -9 -14 -16 13 -75 26 -57 66 -185 83 -267 6 -28 20
-34 44 -20 10 7 7 29 -12 104 -27 106 -86 260 -101 264 -6 2 -18 -1 -27 -6z"/>
<path d="M1193 2228 c-34 -37 -103 -140 -103 -154 0 -19 547 -291 559 -279 7
7 -59 80 -212 233 l-223 223 -21 -23z"/>
<path d="M2074 2028 c-125 -126 -220 -229 -217 -236 3 -9 92 32 284 130 153
79 279 147 279 151 0 11 -61 102 -97 145 l-28 32 -221 -222z"/>
<path d="M1000 2035 c-19 -45 -50 -152 -50 -174 0 -6 11 -11 24 -11 20 0 26 8
39 58 8 31 23 79 33 105 16 42 17 49 4 57 -25 16 -30 12 -50 -35z"/>
<path d="M2453 2072 c-10 -6 -7 -23 12 -73 13 -35 29 -83 35 -106 9 -36 15
-43 35 -43 14 0 25 4 25 8 0 20 -32 129 -51 173 -21 48 -32 56 -56 41z"/>
<path d="M526 1888 c-17 -84 -15 -317 3 -346 4 -6 80 2 204 21 l197 31 0 126
0 126 -182 28 c-101 15 -191 29 -200 32 -12 4 -19 -2 -22 -18z"/>
<path d="M2766 1876 l-188 -31 0 -125 0 -125 198 -32 c110 -17 201 -29 204
-26 8 8 13 281 5 329 -3 25 -11 43 -18 43 -7 -1 -97 -16 -201 -33z"/>
<path d="M1007 1823 c-13 -13 -8 -203 6 -208 7 -3 147 16 312 43 236 37 300
51 300 62 0 12 -56 24 -260 56 -332 53 -350 56 -358 47z"/>
<path d="M2167 1782 c-237 -38 -287 -49 -285 -62 3 -12 69 -25 306 -63 167
-27 306 -46 310 -42 10 9 15 140 8 180 -6 28 -11 35 -29 34 -12 -1 -152 -22
-310 -47z"/>
<path d="M1722 1748 c-28 -28 -3 -72 39 -66 30 4 47 33 33 56 -14 21 -55 27
-72 10z"/>
<path d="M1857 1647 c-3 -9 80 -99 217 -236 l222 -222 45 58 c51 65 85 120 78
126 -2 2 -128 68 -280 146 -202 103 -278 138 -282 128z"/>
<path d="M1361 1515 c-144 -73 -266 -136 -269 -140 -9 -9 23 -63 75 -130 l45
-58 224 224 c122 122 221 226 218 231 -3 4 -11 8 -17 8 -7 0 -131 -61 -276
-135z"/>
<path d="M1677 1558 c-13 -24 -77 -148 -142 -277 -92 -183 -114 -235 -104
-242 25 -16 119 -49 158 -55 37 -6 39 -5 45 22 8 37 84 519 88 558 5 44 -17
42 -45 -6z"/>
<path d="M1780 1593 c0 -32 95 -600 101 -607 13 -14 183 35 207 59 9 8 -281
555 -294 555 -8 0 -14 -3 -14 -7z"/>
<path d="M955 1553 c8 -48 51 -173 63 -185 12 -12 42 1 42 19 0 8 -7 27 -15
42 -8 16 -22 58 -31 95 -15 59 -19 66 -41 66 -24 0 -25 -2 -18 -37z"/>
<path d="M2500 1548 c-6 -24 -22 -72 -35 -107 -25 -65 -23 -80 11 -81 14 0 49
78 69 156 19 75 19 74 -10 74 -20 0 -26 -7 -35 -42z"/>
<path d="M481 1511 c-11 -7 -9 -26 12 -110 27 -105 85 -252 102 -258 6 -1 16
1 24 6 11 7 7 25 -23 99 -20 50 -46 131 -57 181 -21 88 -29 100 -58 82z"/>
<path d="M2984 1493 c-17 -83 -57 -211 -83 -268 -29 -64 -30 -65 -9 -76 26
-14 31 -9 68 85 47 117 84 268 68 278 -24 14 -38 8 -44 -19z"/>
<path d="M833 1247 l-182 -92 29 -53 c36 -66 118 -177 162 -219 l34 -33 143
144 143 144 -45 55 c-25 31 -58 77 -72 102 -15 25 -28 45 -28 44 -1 0 -84 -41
-184 -92z"/>
<path d="M2469 1303 c-13 -21 -46 -67 -72 -102 l-49 -63 143 -145 144 -144 48
53 c53 58 167 224 167 243 0 7 -81 53 -179 104 l-179 91 -23 -37z"/>
<path d="M1197 1152 c-15 -16 -12 -21 41 -64 58 -46 121 -88 134 -88 4 0 12 9
17 19 9 16 2 24 -53 60 -34 23 -73 52 -86 66 -28 30 -32 30 -53 7z"/>
<path d="M2265 1149 c-19 -20 -125 -94 -146 -101 -15 -5 -2 -48 15 -48 16 0
144 89 170 118 15 18 16 24 6 37 -16 20 -23 19 -45 -6z"/>
<path d="M1289 799 c-50 -100 -87 -185 -82 -189 29 -27 336 -123 347 -109 3 4
57 352 60 382 1 15 -15 24 -82 43 -46 13 -97 31 -112 39 -16 8 -31 15 -34 15
-3 0 -47 -82 -97 -181z"/>
<path d="M2060 954 c-30 -13 -81 -29 -112 -36 -32 -6 -58 -16 -58 -21 0 -16
62 -392 65 -395 16 -16 316 81 354 114 4 4 -183 364 -189 363 -3 -1 -30 -12
-60 -25z"/>
<path d="M1636 944 c-3 -9 -6 -19 -6 -23 0 -13 122 -22 184 -15 50 6 56 9 56
30 0 24 -1 24 -114 24 -95 0 -115 -3 -120 -16z"/>
<path d="M850 815 c-16 -19 -2 -36 86 -106 61 -48 201 -139 216 -139 4 0 12 9
18 20 9 17 2 24 -58 60 -38 22 -108 72 -155 110 -48 39 -88 70 -90 70 -3 0
-10 -7 -17 -15z"/>
<path d="M2574 779 c-33 -28 -93 -73 -134 -100 -113 -72 -112 -72 -105 -91 4
-10 13 -18 20 -18 17 0 211 131 268 182 48 43 49 43 29 61 -19 18 -21 17 -78
-34z"/>
<path d="M1560 454 c0 -19 7 -22 68 -27 37 -4 94 -7 127 -7 33 0 90 3 128 7
60 5 67 8 67 27 0 21 -2 22 -195 22 -193 0 -195 -1 -195 -22z"/>
</g>
</svg>
