<?xml version="1.0" standalone="no"?>
<!DOCTYPE svg PUBLIC "-//W3C//DTD SVG 20010904//EN"
 "http://www.w3.org/TR/2001/REC-SVG-20010904/DTD/svg10.dtd">
<svg version="1.0" xmlns="http://www.w3.org/2000/svg"
 width="700.000000pt" height="700.000000pt" viewBox="0 0 700.000000 700.000000"
 preserveAspectRatio="xMidYMid meet">
<metadata>
Created by potrace 1.14, written by Peter Selinger 2001-2017
</metadata>
<g transform="translate(0.000000,700.000000) scale(0.100000,-0.100000)"
fill="#000000" stroke="none">
<path d="M3295 5814 c-113 -21 -207 -50 -304 -95 -56 -26 -98 -39 -126 -39
-68 0 -213 -29 -310 -61 -241 -81 -475 -256 -610 -457 -29 -44 -62 -76 -102
-102 -143 -94 -301 -274 -388 -441 -76 -147 -135 -359 -135 -486 0 -30 -11
-65 -34 -111 -32 -63 -75 -188 -91 -260 l-7 -32 54 6 c29 3 71 2 93 -3 33 -7
47 -5 80 14 44 24 108 32 165 20 35 -7 35 -7 68 57 69 133 196 214 316 202 33
-3 78 -15 101 -26 23 -11 43 -20 46 -20 2 0 13 15 23 34 22 41 98 100 157 122
24 9 84 18 132 21 l88 6 19 36 c41 80 110 121 202 121 76 0 130 -23 191 -79
l44 -41 49 48 c80 77 177 91 280 42 53 -26 128 -100 164 -163 45 -78 47 -125
11 -262 -17 -64 -28 -121 -25 -126 3 -5 16 -9 29 -9 33 0 103 -28 142 -57 17
-12 35 -23 40 -23 4 0 18 15 30 34 103 159 371 203 574 95 54 -29 145 -113
179 -167 l15 -23 53 51 c78 75 126 94 247 95 73 1 111 6 140 19 42 19 113 25
156 13 25 -6 29 -2 58 57 64 130 195 214 316 202 151 -15 261 -125 273 -273 4
-60 6 -62 36 -69 17 -3 44 -13 60 -21 l28 -15 -7 54 c-11 82 -52 215 -96 307
-26 56 -39 98 -39 126 0 68 -29 213 -61 309 -81 243 -256 476 -462 615 -36 25
-72 61 -97 98 -97 146 -275 302 -441 388 -147 76 -359 135 -486 135 -30 0 -65
11 -111 34 -85 42 -209 82 -319 101 -106 19 -302 18 -408 -1z"/>
<path d="M2633 4191 c-51 -10 -80 -42 -93 -104 l-11 -55 -95 0 c-114 -1 -198
-17 -236 -45 -35 -26 -65 -76 -69 -114 -6 -67 23 -90 126 -100 77 -7 125 8
177 55 21 19 41 33 43 30 3 -2 -2 -38 -11 -79 -29 -136 -44 -233 -50 -309 -6
-77 -26 -144 -98 -335 -41 -109 -41 -110 -44 -66 -5 62 24 242 54 339 14 46
22 91 19 102 -4 12 -28 27 -63 41 -47 17 -70 20 -129 15 l-72 -6 10 28 c48
125 25 232 -60 289 -29 19 -47 23 -115 23 -91 0 -152 -22 -193 -68 -36 -40
-73 -123 -80 -181 l-6 -50 -29 22 c-25 18 -43 22 -112 22 -61 0 -89 -4 -109
-18 -20 -13 -52 -18 -140 -20 -122 -3 -139 -9 -200 -66 -42 -38 -94 -148 -117
-245 -22 -95 -48 -166 -61 -166 -13 0 1 181 27 338 13 78 46 232 74 343 l50
200 -18 42 c-20 45 -87 112 -128 127 -57 22 -174 8 -207 -25 -21 -22 -56 -140
-73 -250 -3 -22 -12 -69 -19 -105 -8 -36 -17 -93 -21 -127 l-7 -63 -96 0
c-134 -1 -182 -24 -248 -121 -87 -127 -109 -348 -46 -471 47 -94 123 -132 264
-133 77 0 90 3 127 28 23 15 42 32 42 37 0 6 17 -1 38 -14 74 -49 232 -72 290
-42 15 8 38 26 51 40 l24 25 34 -26 c39 -30 126 -53 203 -53 64 0 127 26 156
63 l20 25 56 -38 c57 -38 99 -50 181 -50 112 0 172 73 248 299 21 64 35 98 31
76 -4 -22 -7 -83 -6 -135 1 -180 53 -265 182 -294 88 -20 134 -20 198 -1 64
19 118 64 156 131 l30 55 45 -42 c59 -54 102 -70 200 -77 75 -4 86 -3 117 19
19 13 45 40 58 60 l24 37 40 -40 c67 -69 102 -79 295 -84 168 -5 169 -5 225
23 69 34 137 107 162 176 11 29 23 51 27 50 4 -1 17 -28 27 -60 19 -55 54
-113 88 -141 8 -7 39 -25 69 -39 72 -35 222 -44 297 -19 91 30 167 113 211
231 21 57 22 58 23 25 1 -46 39 -138 74 -177 37 -42 92 -63 185 -70 96 -7 147
7 190 51 l33 34 47 -33 c25 -18 64 -38 86 -44 57 -16 142 -14 180 5 61 29 137
161 176 310 25 96 34 105 18 18 -13 -70 -6 -182 16 -243 35 -99 80 -138 183
-160 122 -25 213 -3 286 70 47 47 49 48 72 32 14 -9 50 -22 82 -29 109 -26
189 -14 246 37 23 20 37 26 41 18 4 -6 33 -23 64 -37 46 -21 72 -26 148 -26
l92 -1 41 40 c64 61 122 188 160 349 18 72 18 83 4 103 -13 21 -20 23 -82 18
-74 -6 -88 -16 -98 -74 -8 -44 -64 -201 -71 -201 -12 0 7 249 27 360 11 63 44
208 72 321 31 127 49 215 45 231 -9 35 -62 98 -109 131 -33 21 -52 27 -97 27
-71 0 -123 -14 -146 -40 -20 -23 -52 -154 -91 -381 l-27 -157 -107 -4 c-115
-5 -146 -16 -202 -75 -50 -52 -96 -167 -113 -278 -9 -63 -79 -235 -83 -206 -7
42 19 221 45 320 41 156 41 146 -8 173 -37 19 -58 23 -135 23 l-92 -1 16 41
c8 22 15 72 16 110 1 86 -25 135 -87 166 -34 18 -54 21 -126 17 -54 -3 -99
-11 -121 -22 -56 -27 -104 -100 -126 -186 -10 -41 -19 -76 -20 -78 -1 -2 -18
7 -38 19 -33 19 -47 21 -112 16 -43 -3 -86 -12 -99 -21 -18 -12 -56 -17 -137
-20 -126 -4 -157 -14 -207 -72 -17 -19 -42 -56 -55 -82 -14 -27 -31 -54 -39
-60 -12 -11 -16 -6 -22 25 -11 63 -62 158 -105 196 -21 20 -63 49 -92 64 -51
27 -58 28 -198 27 -113 0 -153 -4 -182 -17 -57 -26 -105 -73 -124 -123 -15
-40 -16 -53 -4 -113 9 -50 10 -73 2 -87 -10 -17 -11 -17 -12 -2 0 38 -44 133
-79 171 -20 22 -54 48 -76 58 -44 20 -135 24 -200 9 -22 -5 -41 -8 -42 -6 -2
2 20 90 48 197 35 135 49 205 46 232 -6 45 -44 97 -101 139 -39 29 -44 30
-124 26 -117 -6 -130 -18 -162 -141 -20 -80 -28 -97 -43 -97 -16 0 -18 5 -13
34 8 43 -10 89 -55 141 -57 65 -133 86 -236 66z m-902 -813 c24 -30 24 -39
-10 -134 -44 -125 -53 -134 -46 -44 6 80 26 200 33 200 2 0 12 -10 23 -22z
m3479 -34 c0 -39 -67 -228 -71 -199 -5 45 12 201 27 244 7 21 44 -17 44 -45z
m-4710 -175 c-25 -66 -37 -86 -46 -76 -12 12 12 157 38 222 l23 60 3 -76 c2
-58 -2 -89 -18 -130z m5695 2 c-9 -25 -23 -57 -31 -71 -14 -23 -15 -19 -10 60
3 53 13 110 28 150 l23 65 3 -79 c2 -52 -2 -94 -13 -125z m-2861 -6 c-4 -8
-12 -15 -19 -15 -7 0 -28 -2 -46 -6 l-34 -5 35 20 c43 25 72 27 64 6z"/>
<path d="M3653 2863 c-95 -94 -243 -143 -345 -115 -24 7 -52 7 -79 1 -54 -12
-128 8 -199 56 -29 19 -54 35 -56 35 -2 0 -24 -16 -49 -35 -52 -39 -100 -55
-165 -55 -49 0 -138 33 -189 70 l-33 23 -51 -50 c-83 -80 -157 -113 -257 -113
-127 0 -236 58 -296 157 l-30 50 -45 -47 c-104 -110 -222 -128 -345 -54 -46
28 -62 33 -74 25 -8 -7 -36 -22 -62 -34 -46 -21 -47 -23 -41 -57 15 -88 58
-214 108 -315 90 -184 222 -339 385 -454 47 -33 83 -68 109 -107 98 -147 276
-303 441 -388 146 -75 363 -136 488 -136 28 0 65 -11 110 -34 144 -72 338
-116 519 -116 187 0 351 35 512 111 56 26 98 39 126 39 68 0 213 29 309 61
242 81 460 243 605 449 33 47 68 83 107 109 147 98 303 275 389 442 42 82 105
250 105 282 0 9 -14 17 -37 22 -84 15 -163 70 -213 147 l-37 56 -35 -41 c-68
-81 -189 -124 -274 -97 -22 7 -61 26 -88 42 l-48 29 -37 -24 c-48 -31 -65 -37
-133 -47 -113 -16 -233 29 -302 113 l-35 43 -69 -66 c-92 -90 -152 -115 -282
-114 -135 1 -193 25 -285 118 l-70 71 -52 -52z"/>
</g>
</svg>
