<?xml version="1.0" encoding="UTF-8" standalone="no"?>
<!DOCTYPE svg PUBLIC "-//W3C//DTD SVG 1.1//EN" "http://www.w3.org/Graphics/SVG/1.1/DTD/svg11.dtd">
<svg width="100%" height="100%" viewBox="0 0 1200 1200" version="1.1" xmlns="http://www.w3.org/2000/svg" xmlns:xlink="http://www.w3.org/1999/xlink" xml:space="preserve" xmlns:serif="http://www.serif.com/" style="fill-rule:evenodd;clip-rule:evenodd;stroke-linecap:round;stroke-linejoin:round;">
    <g transform="matrix(-0.000488463,0.974626,-0.974626,-0.000488463,600,600)">
        <path d="M-102.922,-384.11C-74.144,-399.927 -37.899,-410.414 0,-410.414C37.899,-410.414 74.144,-399.927 102.922,-384.11C135.753,-383.419 172.385,-374.378 205.207,-355.429C238.028,-336.479 264.174,-309.275 281.188,-281.188C309.275,-264.174 336.479,-238.028 355.429,-205.207C374.378,-172.385 383.419,-135.753 384.11,-102.922C399.927,-74.144 410.414,-37.899 410.414,-0C410.414,37.899 399.927,74.144 384.11,102.922C383.419,135.753 374.378,172.385 355.429,205.207C336.479,238.028 309.275,264.174 281.188,281.188C264.174,309.275 238.028,336.479 205.207,355.429C172.385,374.378 135.753,383.419 102.922,384.11C74.144,399.927 37.899,410.414 0,410.414C-37.899,410.414 -74.144,399.927 -102.922,384.11C-135.753,383.419 -172.385,374.378 -205.207,355.429C-238.028,336.479 -264.174,309.275 -281.188,281.188C-309.275,264.174 -336.479,238.028 -355.429,205.207C-374.378,172.385 -383.419,135.753 -384.11,102.922C-399.927,74.144 -410.414,37.899 -410.414,0C-410.414,-37.899 -399.927,-74.144 -384.11,-102.922C-383.419,-135.753 -374.378,-172.385 -355.429,-205.207C-336.479,-238.028 -309.275,-264.174 -281.188,-281.188C-264.174,-309.275 -238.028,-336.479 -205.207,-355.429C-172.385,-374.378 -135.753,-383.419 -102.922,-384.11Z" style="fill:rgb(42,99,99);"/>
    </g>
    <g transform="matrix(-0.000366347,0.73097,-0.73097,-0.000366347,600,600)">
        <path d="M-102.922,-384.11C-74.144,-399.927 -37.899,-410.414 0,-410.414C37.899,-410.414 74.144,-399.927 102.922,-384.11C135.753,-383.419 172.385,-374.378 205.207,-355.429C238.028,-336.479 264.174,-309.275 281.188,-281.188C309.275,-264.174 336.479,-238.028 355.429,-205.207C374.378,-172.385 383.419,-135.753 384.11,-102.922C399.927,-74.144 410.414,-37.899 410.414,-0C410.414,37.899 399.927,74.144 384.11,102.922C383.419,135.753 374.378,172.385 355.429,205.207C336.479,238.028 309.275,264.174 281.188,281.188C264.174,309.275 238.028,336.479 205.207,355.429C172.385,374.378 135.753,383.419 102.922,384.11C74.144,399.927 37.899,410.414 0,410.414C-37.899,410.414 -74.144,399.927 -102.922,384.11C-135.753,383.419 -172.385,374.378 -205.207,355.429C-238.028,336.479 -264.174,309.275 -281.188,281.188C-309.275,264.174 -336.479,238.028 -355.429,205.207C-374.378,172.385 -383.419,135.753 -384.11,102.922C-399.927,74.144 -410.414,37.899 -410.414,0C-410.414,-37.899 -399.927,-74.144 -384.11,-102.922C-383.419,-135.753 -374.378,-172.385 -355.429,-205.207C-336.479,-238.028 -309.275,-264.174 -281.188,-281.188C-264.174,-309.275 -238.028,-336.479 -205.207,-355.429C-172.385,-374.378 -135.753,-383.419 -102.922,-384.11Z" style="fill:rgb(167,86,79);"/>
    </g>
    <g transform="matrix(0.748801,0,0,0.880224,359.547,311.978)">
        <path d="M321.117,100L395.514,132.432L478.111,143.394L515.891,206.832L575.138,257.002L561.87,327.215L575.138,397.428L515.891,447.598L478.111,511.036L395.514,521.998L321.117,554.43L246.72,521.998L164.123,511.036L126.343,447.598L67.096,397.428L80.364,327.215L67.096,257.002L126.343,206.832L164.123,143.394L246.72,132.432L321.117,100Z" style="fill:rgb(239,123,113);"/>
    </g>
    <g transform="matrix(0.3744,0,0,0.440112,479.774,455.989)">
        <path d="M321.117,100L395.514,132.432L478.111,143.394L515.891,206.832L575.138,257.002L561.87,327.215L575.138,397.428L515.891,447.598L478.111,511.036L395.514,521.998L321.117,554.43L246.72,521.998L164.123,511.036L126.343,447.598L67.096,397.428L80.364,327.215L67.096,257.002L126.343,206.832L164.123,143.394L246.72,132.432L321.117,100Z" style="fill:rgb(61,142,141);"/>
    </g>
    <g id="Gruppe" transform="matrix(1,0,0,1,2.76201,112.672)">
        <path id="dartboard" d="M161.516,490.156L158.234,510.922L156.313,529.094L156.047,535.844L158.625,528.891L160.516,518.266L162.281,511.172L166.906,497.906L170.734,489.844L175.438,481.859L179.703,476.031L184.906,470.344L191.391,465.031L199.859,460.516L207.75,458.328L215.969,457.656L226.188,458.531L233.984,460.688L236.594,462L239.328,458.75L243.734,455.297L249.188,452.609L258.031,451.063L265.797,452.047L272.406,454.422L278.969,458.141L282.125,460.578L282.172,459.547L283.969,450.391L287.078,441.188L290.703,433.516L296.219,425.891L302.016,419.516L308.891,414.203L316.516,410.281L324.25,408.078L330.672,407.656L338.5,408.875L345.578,411.156L352.109,414.563L357.859,419.109L362.688,424.672L364.672,428.094L365.156,421.25L367.109,415.063L369.625,409.75L374.672,401.563L381.344,395.078L388.594,390.609L397.203,387.531L407.813,385.641L416.859,385.266L425.656,385.953L435.094,387.438L435.531,387.531L436.547,383.266L438.672,376.469L441.766,370.016L446.125,364.578L451.813,360.375L458.438,357.797L465.406,357.125L471.484,358L477.453,359.75L485.781,364.078L493.625,370.516L501.828,380.109L506.203,387.438L509.188,396.656L509.219,400.297L513.156,384.172L515.266,377.484L518.344,371.031L522.719,365.594L528.313,361.438L534.938,358.766L542.938,358L550.266,359.203L557.484,362.109L564.047,366.219L570.078,371.406L575.75,377.688L580.547,384.5L583.984,391.766L585.641,399.375L585.422,405.281L583.781,413.313L571.719,458.641L571.391,460.094L572.656,459.672L582.094,458.172L589.688,458.344L599,460.359L607.938,464.438L615.953,470.266L622.781,477.578L628.359,486.094L629.859,489.219L629.719,486.625L630.922,477.422L634.219,468.609L639.438,460.484L646.938,452.656L654.141,447.672L664.266,443.297L672.938,441.266L682.266,440.313L695.516,440.906L703.328,442.109L713.109,445.031L720.453,448.313L727.469,452.375L734.391,457.406L740.75,463.469L746.328,470.438L750.984,478.125L753.797,483.906L757.125,492.781L758.563,498.063L760.625,495.672L761.781,495.125L765.016,488.297L768.938,481.797L773.25,475.891L780.781,468.125L788.859,462.594L796.375,459.484L802.781,458.109L809.375,457.672L817.219,458.156L824.828,459.813L830.078,461.938L830.828,460.828L835.016,456.781L840.781,453.359L846.375,451.625L853.031,451.156L859.359,452.078L865.75,454.375L870.984,457.219L875.547,460.609L876.969,452.109L880.547,441.109L885.313,431.625L891.5,423.641L897.75,417.531L906.078,412.047L915.047,408.609L922.766,407.594L931.969,408.859L940.484,411.781L945.516,414.578L950.047,417.969L954.938,423.094L958.109,427.781L960.578,432.859L962.625,439.703L963.422,445.375L963.688,452.625L962.25,464.875L962.016,465.828L965.531,465.359L972.328,465.516L983.172,468.141L995.25,473.75L999.656,477.547L1003.06,483.484L1003.86,489.375L1003.14,494.109L998.234,509.313L994.563,524.469L992.297,537.297L990.766,549.703L991.75,547.375L996.984,533.234L997.469,527.047L998.984,517.922L1001.62,507.938L1004.03,500.938L1008.23,491.234L1011.92,484.578L1015.98,478.547L1021,472.484L1028.34,465.875L1036.75,460.953L1045.88,458.063L1054.36,457.328L1064.66,458.234L1071.17,460.078L1073.11,446.797L1080.67,405.859L1086.5,379.531L1088.95,373.594L1093.02,367.594L1100.06,361.922L1105.59,359.578L1111.33,358.406L1119.89,358.922L1129.28,362.391L1137.52,367.734L1146.27,376.203L1152.66,384.781L1156.64,393.578L1157.84,399.984L1157.48,406.609L1148.06,442.469L1142.17,467.297L1136.55,495.891L1133.66,515.609L1132.09,533.047L1132.03,536.156L1132.31,535.5L1134.95,528.094L1137,521.047L1139.62,508.078L1142.52,502.313L1147.44,497.766L1152.64,495.141L1158.59,494.172L1164.42,495.203L1169.75,497.875L1174.58,503L1177.19,508.609L1177.73,514.375L1175.84,525.656L1169.7,547.547L1164.53,562.031L1158.06,576.641L1151.95,586.672L1144.86,595.141L1140.52,598.938L1135.75,602.141L1127.34,605.563L1119.14,606.438L1112.42,605.406L1099,600.906L1091,596.797L1083.75,591.516L1081.95,589.781L1075.66,596.25L1069.91,600.281L1061.78,603.609L1054.62,605.016L1046.25,605.313L1038.27,604.344L1033.25,603.016L1027.47,600.688L1023.08,598.219L1017.72,594.25L1016.58,593L1016.06,593.828L1007.66,603.203L999.094,609.703L994.313,612.234L987.453,614.953L978.188,617.109L971.813,617.484L965.281,617.078L955.359,614.594L948.656,611.5L943,608.016L938.609,604.391L935.063,600.516L931.703,595.75L928.734,590.188L924.766,578.875L923.281,572.063L921.859,562L921.641,556.203L916.781,568.563L911.25,579.609L905.156,588.828L897.578,597.266L890.156,602.406L883.609,605.063L878.453,606.172L870.734,606.188L863.094,604.188L852.266,598.313L845.703,593.906L839.656,588.516L838.828,587.547L838.266,588.406L831.422,595.922L823.797,601.234L818.797,603.297L811.891,605.063L801.344,605.672L791.75,604.344L785.5,602.344L780.813,600.156L774.172,595.766L767.359,589L762.063,581.406L757.391,571.844L754.391,562.375L751.078,570.281L745.422,580.016L737.938,589.594L730.516,596.563L722.469,602.125L713.734,606.25L704.656,608.75L695.328,610L690.109,609.953L676.391,607.281L669.594,604.797L663.406,601.672L657.625,597.797L652.359,593.266L647.578,588.094L643.266,582.25L639.25,575.281L636.313,568.656L633.688,559.922L632.063,564.719L626.906,574.938L621.391,582.797L613.609,590.828L604.547,597.469L594.781,602.563L586.438,605.25L577.813,606.391L568.797,605.734L560.453,603.25L557.422,601.563L556.078,602.719L549.688,605.281L543.922,605.75L538.766,604.734L531.797,602.078L525.047,598.672L520.563,595.75L514.469,590.891L505.953,581.484L505.844,581.297L501.391,588.141L496.391,593.875L489.141,599.656L481.594,603.156L473.453,604.688L464.031,604.297L453.359,600.25L446.406,596.484L439.984,591.813L432.672,584.625L429.953,580.969L425.172,590.109L418.313,599.031L409.547,607.125L400.938,612.25L389.422,616.281L378.563,617.531L370.406,616.844L363.406,615.094L356.781,612.328L350.688,608.781L346.125,605.297L341.688,600.594L338.172,595.609L334.266,587.813L332.078,581.625L329.828,572.156L328.422,562.156L328.078,556.625L325.156,564.328L319.406,576.656L314.313,585.234L307.406,594.031L300.375,600.234L291.453,604.703L282.531,606.406L277.203,606.125L271.922,604.969L265.531,602.156L255.516,596.25L249.063,591.25L245.453,587.422L244.828,588.391L238.109,595.781L232.063,600.281L225.391,603.328L216.406,605.359L207.766,605.656L198.297,604.344L191.953,602.297L186.141,599.469L180.828,595.797L176.063,591.391L174.094,589.016L173.344,590.063L168.563,595.406L162.422,600.453L157.516,603.219L151.094,605.578L143.109,606.438L136.438,605.422L125.047,601.688L118.906,599L113.094,595.563L107.641,591.438L105.828,589.672L104.594,591.313L101.125,594.891L95.75,599.156L88.172,602.797L83.156,604.25L76.094,605.266L65.609,604.891L60.344,603.906L54.078,601.891L45.766,597.438L38.391,591.094L32.297,583.25L27.031,573.313L23.234,561.922L21.375,551.563L20.719,538.234L21.5,526.313L23.609,515.078L25.641,507.781L29.234,497.781L32.25,491.141L35.891,484.578L39.984,478.484L46.016,471.375L52.234,465.969L57.813,462.422L63.828,459.719L71.469,457.813L78.281,457.344L86.188,457.844L93.859,459.578L95.078,460.078L96.125,452.672L100.797,425.828L106.297,398.031L110.828,378.422L112.938,373.609L116.156,368.594L122.797,362.656L128.25,360.016L133.594,358.641L138.984,358.406L143.922,359.031L149.906,360.891L156.641,364.328L162.969,368.984L168.844,374.672L174.281,381.313L178.422,388.172L180.719,394.078L181.922,401.797L181.078,408.203L172.031,442.484L166.125,467.359L161.516,490.156ZM422.938,438.25L416.875,444.078L411.063,448.031L406.625,450.234L400.219,452.344L393.328,453.203L386.406,452.734L381.234,451.313L374.891,447.875L369.563,442.328L369.781,443.422L370.219,450.609L369.891,457.75L368.734,465.094L368.547,465.828L372.109,465.359L378.875,465.516L389.719,468.141L401.797,473.75L406.172,477.516L409.625,483.453L410.422,489.422L409.672,494.141L404.828,509.172L401.094,524.609L398.844,537.344L397.375,549.172L401.453,539.172L406.25,525.313L412.328,505.594L413.266,504.031L414.156,491.094L416.719,471.234L420.563,449.781L423.172,438.234L422.938,438.25ZM890.109,522.281L889.141,530.469L890.844,525.5L892.641,518.844L893.031,516.75L891.703,515.203L890.109,522.281ZM296.609,522.469L295.625,530.016L298.031,523.422L299.469,516.797L298.203,515.406L296.609,522.469ZM592.594,562.906L585,574.766L581.359,579.109L576.438,583.516L568.078,587.375L559.844,584.859L555.313,580.813L546.469,564.516L561.297,555.922L566.625,553.781L583.094,549.688L592.594,562.906ZM694.594,530.641L703.203,532.609L712.234,533.672L741.203,533.906L732.047,556.719L727.922,564.344L723.203,570.859L718.969,575.516L714.172,579.438L708.859,582.484L702.922,584.547L695.875,585.375L688.625,584.625L682.094,581.406L676.516,575.219L673.328,568.688L671.531,562.547L670.359,554.391L670.328,545.719L672.625,523.047L694.594,530.641ZM107.828,488.688L110.328,493.141L113.844,502.375L112.859,520.109L112.688,538.984L107.859,553.516L101.453,566.094L97.813,571.453L93.938,575.938L78.844,588.469L68.063,577.172L64.969,571.375L63.313,565.891L62.203,558.125L62.188,545.406L64.281,532.031L68.719,516.563L73.172,505.875L76.688,499.422L81.75,491.938L86.141,487.172L98.063,478.922L107.828,488.688ZM246.281,490.094L251.109,500.391L250.531,521.641L251.094,536.531L246.781,550.688L243.781,557.703L240.234,564.219L233.063,574.188L228.844,578.563L216.016,588.047L205.719,577.156L202.609,571.375L200.969,565.875L199.844,558.141L199.828,545.406L201.922,532.031L206.359,516.547L210.828,505.875L214.359,499.391L219.469,491.938L224.016,487.109L236.359,479.344L246.281,490.094ZM838.375,488.266L840.859,492.188L844.547,500.516L843.984,521.641L844.547,536.531L840.234,550.703L837.203,557.703L833.672,564.219L826.531,574.188L822.297,578.563L809.469,588.047L799.172,577.156L796.063,571.375L794.422,565.875L793.297,558.141L793.281,545.406L795.375,532.031L799.813,516.563L804.266,505.875L807.828,499.375L812.922,491.938L817.469,487.109L829.125,479.781L838.375,488.266ZM1083.88,488.719L1086.36,493.141L1089.88,502.375L1088.89,520.109L1088.73,538.984L1083.88,553.516L1077.48,566.094L1073.84,571.453L1069.97,575.938L1054.88,588.469L1044.09,577.172L1040.98,571.359L1039.36,565.875L1038.23,558.141L1038.22,545.406L1040.31,532.031L1044.75,516.563L1049.2,505.875L1052.73,499.406L1057.8,491.953L1062.16,487.172L1074.17,478.906L1083.88,488.719ZM503.594,425.688L527.141,426.469L519.141,462.781L516.141,479.156L514.422,494.563L513.344,518.359L509.609,532.797L504.641,546.484L496.906,562.594L492.141,570.5L488.641,575.172L484.188,579.594L465.781,589.859L460.531,557.844L459.047,540.266L459,526.734L460.016,512.688L462.422,496.031L466.969,471.906L479.313,422.484L503.594,425.688ZM579.984,487.172L586.203,491.688L591.25,498.922L595.078,508.656L597.031,516.922L597.984,525.328L597.969,533.984L597.016,542.734L593.906,558.266L571.703,561.109L568.969,561.828L566.344,562.953L563.328,564.672L551.688,574.328L538.563,569.297L537.047,558.875L537.391,550.375L538.938,536.109L542.109,521.563L546.234,509.5L551.266,499.469L556.813,492.25L561.922,488.266L567.813,485.766L573.734,485.469L579.984,487.172ZM698.203,461.453L705.5,463.875L712.219,467.406L717.109,470.906L722.719,476.141L727.531,482.25L731.453,488.984L734.469,496.25L737.406,506.563L739.094,518.938L739.531,535.969L724.234,536.219L714.516,535.813L704.625,534.391L694.969,531.953L673.266,523.844L680.016,508.75L680.328,507.203L680.266,505.953L679.547,503.813L677.375,500.516L673.594,496.641L668.078,491.906L648.578,480.078L667.344,465.781L674.516,462.438L682.563,460.484L690.938,460.188L698.203,461.453ZM329.828,435.609L335.391,438.203L341.563,444.609L344.563,452.906L345.281,461.422L344.391,470.484L342.031,479.828L337.766,491.219L325.688,514.375L309.125,497.406L304.578,489.047L302.281,479.75L301.563,469.719L302.578,459.203L305.438,449.906L308.516,443.969L311.641,439.891L316.313,436.188L323.344,434.234L329.828,435.609ZM923.281,435.609L928.844,438.203L935.016,444.609L938.016,452.922L938.719,461.422L937.844,470.484L935.484,479.828L931.219,491.219L919.156,514.344L902.563,497.406L898.031,489.047L895.734,479.75L895.016,469.734L896.016,459.203L898.891,449.922L901.938,443.984L905.078,439.891L909.75,436.172L916.813,434.234L923.281,435.609Z" style="fill:rgb(145,192,158);stroke:rgb(162,179,134);stroke-width:24px;"/>
        <path id="path1" d="M379.379,604.482C372.181,604.482 365.322,602.346 358.799,598.072C349.802,592.449 344.179,581.205 341.93,564.336C339.68,548.592 340.806,534.196 345.305,521.15C338.558,521.775 332.507,521.323 327.148,519.797C326.622,522.249 325.927,524.836 325.061,527.561C323.936,532.284 322.699,536.894 321.35,541.393C320,545.891 318.2,550.951 315.951,556.574C313.702,562.197 311.341,567.26 308.867,571.758C306.393,576.256 303.525,580.361 300.264,584.072C297.002,587.783 293.573,590.313 289.975,591.662C287.5,592.787 284.914,593.35 282.215,593.35C277.941,593.35 273.779,591.887 269.73,588.963C261.633,585.139 255.112,579.516 250.164,572.094C248.59,569.844 247.127,567.034 245.777,563.66C239.255,577.83 232.282,586.603 224.859,589.977C220.811,591.776 216.313,592.676 211.365,592.676C197.195,592.676 186.512,586.153 179.314,573.107C177.716,570.247 176.363,567.222 175.252,564.031C172.331,570.765 168.904,576.601 164.975,581.541C161.039,586.489 156.934,589.863 152.66,591.662C150.186,592.787 147.599,593.35 144.9,593.35C142.201,593.35 139.391,592.674 136.467,591.324C126.795,589.075 118.586,584.241 111.838,576.818C109.814,574.344 108.014,571.082 106.439,567.033C100.367,579.179 93.957,586.715 87.209,589.639C83.16,591.438 78.663,592.338 73.715,592.338C59.545,592.338 48.862,585.815 41.664,572.77C37.391,565.122 34.859,556.35 34.072,546.453C33.285,536.557 33.903,527.223 35.928,518.451C37.952,509.679 40.876,501.583 44.699,494.16C53.246,478.191 63.706,469.644 76.076,468.52C87.772,467.62 97.556,470.993 105.428,478.641C107.227,464.246 109.59,449.008 112.514,432.926C115.438,416.844 117.854,404.643 119.766,396.32C121.677,387.998 122.746,383.275 122.971,382.15C124.545,377.202 127.189,373.66 130.9,371.523C134.612,369.387 138.716,368.881 143.215,370.006C149.962,371.805 156.484,376.416 162.781,383.838C169.079,391.26 171.666,397.894 170.541,403.742C170.316,404.867 169.418,408.353 167.844,414.201C146.701,490.674 140.065,542.967 147.938,571.082C150.861,570.632 155.022,565.572 160.42,555.9C165.048,547.608 168.847,538.735 171.822,529.285C172.182,525.575 172.768,521.963 173.578,518.451C175.602,509.679 178.526,501.695 182.35,494.498C190.897,478.304 201.356,469.757 213.727,468.857C225.422,467.958 235.093,471.218 242.74,478.641C243.19,477.066 243.529,475.829 243.754,474.93C245.328,469.981 247.913,466.439 251.512,464.303C255.11,462.166 259.273,461.661 263.996,462.785C270.744,464.584 277.209,469.195 283.395,476.617C289.58,484.04 292.111,490.674 290.986,496.521C290.761,497.871 290.198,500.121 289.299,503.27C282.776,528.236 281.763,550.839 286.262,571.082C289.411,569.733 293.46,564.448 298.408,555.227C303.356,546.005 307.406,536.219 310.555,525.873C311.838,521.169 312.811,516.671 313.484,512.373C308.549,507.702 304.198,501.181 300.432,492.811C297.958,486.963 296.328,481.171 295.541,475.436C294.754,469.7 294.585,464.808 295.035,460.76C295.485,456.711 296.385,452.719 297.734,448.783C299.084,444.847 300.376,441.755 301.613,439.506C302.85,437.257 304.256,435.231 305.83,433.432C309.654,428.258 314.096,424.38 319.156,421.793C324.217,419.206 328.885,418.251 333.158,418.926C341.03,420.05 347.272,423.143 351.883,428.203C356.494,433.264 358.912,439.729 359.137,447.602C359.587,455.024 358.181,463.289 354.92,472.398C351.659,481.508 347.441,489.775 342.268,497.197C349.915,495.848 355.425,491.911 358.799,485.389C361.048,481.34 364.422,478.64 368.92,477.291C375.892,475.042 384.665,476.729 395.236,482.352C399.06,484.376 400.184,487.412 398.609,491.461C392.986,506.98 389.05,524.3 386.801,543.418C384.552,562.536 385.227,575.58 388.826,582.553C389.276,583.228 389.613,583.566 389.838,583.566C392.312,583.342 395.404,580.305 399.115,574.457C402.826,568.609 406.876,560.062 411.262,548.816C415.648,537.57 419.977,524.637 424.25,510.018C424.548,508.677 425.144,507.584 426.033,506.736C426.945,484.175 431.299,457.154 439.096,425.672C426.725,424.097 419.189,424.773 416.49,427.697C409.293,436.019 401.533,440.18 393.211,440.18C388.938,440.18 385.451,439.056 382.752,436.807C379.378,433.883 377.691,430.17 377.691,425.672C377.691,421.173 380.167,415.326 385.115,408.129C389.164,403.181 394.561,399.863 401.309,398.176C408.056,396.489 414.748,395.926 421.383,396.488C428.018,397.051 436.059,398.458 445.506,400.707C446.181,398.683 446.742,396.32 447.191,393.621C448.091,389.123 449.217,384.849 450.566,380.801C452.141,375.853 454.727,372.311 458.326,370.174C461.925,368.037 466.085,367.643 470.809,368.992C477.556,370.566 484.079,375.121 490.377,382.656C496.675,390.191 499.261,396.883 498.137,402.73C497.462,405.205 496.786,408.017 496.111,411.166C505.712,412.154 513.673,411.723 519.994,409.875C520.65,407.402 521.347,404.798 522.09,402.057C522.54,399.807 523.103,397.221 523.777,394.297C524.677,390.023 525.801,385.861 527.15,381.813C528.725,376.864 531.311,373.322 534.91,371.186C538.509,369.049 542.669,368.543 547.393,369.668C554.14,371.467 560.608,376.078 566.793,383.5C572.978,390.922 575.507,397.558 574.383,403.406C573.483,408.354 571.909,414.764 569.66,422.637C568.311,427.135 567.298,430.732 566.623,433.432C560.1,457.948 555.716,476.054 553.467,487.75C559.315,478.978 566.062,473.468 573.709,471.219C583.83,467.845 593.277,468.576 602.049,473.412C610.821,478.248 617.568,486.513 622.291,498.209C626.34,508.33 628.252,519.238 628.027,530.934C637.924,523.511 643.321,516.99 644.221,511.367C644.443,510.031 644.941,508.861 645.715,507.855C645.984,506.666 646.273,505.474 646.582,504.281C645.233,501.132 644.222,497.759 643.547,494.16C641.523,484.264 643.433,475.491 649.281,467.844C656.029,458.397 666.149,453 679.645,451.65C683.918,451.201 688.08,451.201 692.129,451.65C703.6,452.1 714.507,456.037 724.854,463.459C735.2,470.881 742.623,482.015 747.121,496.859C749.37,504.057 750.607,511.704 750.832,519.801C753.306,518.901 756.398,516.877 760.109,513.729C763.821,510.58 766.576,507.767 768.375,505.293C768.6,504.843 769.05,504.395 769.725,503.945C770.384,503.568 771.074,503.3 771.793,503.141C772.996,500.144 774.33,497.262 775.799,494.498C784.346,478.304 794.803,469.757 807.174,468.857C818.87,467.958 828.542,471.218 836.189,478.641C836.639,477.066 836.976,475.829 837.201,474.93C838.776,469.981 841.362,466.439 844.961,464.303C848.56,462.166 852.72,461.661 857.443,462.785C864.191,464.584 870.658,469.195 876.844,476.617C883.029,484.04 885.558,490.674 884.434,496.521C884.209,497.871 883.648,500.121 882.748,503.27C876.225,528.235 875.213,550.84 879.711,571.082C882.86,569.733 886.907,564.448 891.855,555.227C896.804,546.005 900.853,536.219 904.002,525.873C905.285,521.168 906.26,516.669 906.934,512.371C901.999,507.7 897.647,501.181 893.881,492.811C891.407,486.963 889.776,481.171 888.988,475.436C888.201,469.7 888.033,464.808 888.482,460.76C888.932,456.711 889.832,452.719 891.182,448.783C892.531,444.847 893.823,441.755 895.061,439.506C896.298,437.257 897.705,435.231 899.279,433.432C903.103,428.258 907.545,424.38 912.605,421.793C917.666,419.206 922.332,418.251 926.605,418.926C934.478,420.05 940.719,423.143 945.33,428.203C949.941,433.264 952.359,439.729 952.584,447.602C953.034,455.024 951.629,463.289 948.367,472.398C945.106,481.508 940.888,489.775 935.715,497.197C943.362,495.848 948.872,491.911 952.246,485.389C954.495,481.34 957.871,478.64 962.369,477.291C969.342,475.042 978.112,476.729 988.684,482.352C992.507,484.376 993.633,487.412 992.059,491.461C986.436,506.98 982.499,524.3 980.25,543.418C978.001,562.536 978.675,575.58 982.273,582.553C982.723,583.228 983.06,583.566 983.285,583.566C985.759,583.342 988.853,580.305 992.564,574.457C996.276,568.609 1000.32,560.062 1004.71,548.816C1006.43,544.409 1008.14,539.74 1009.84,534.814C1010.04,529.159 1010.75,523.704 1011.96,518.451C1013.99,509.679 1016.91,501.583 1020.73,494.16C1029.28,478.191 1039.74,469.644 1052.11,468.52C1063.81,467.62 1073.59,470.993 1081.46,478.641C1083.26,464.246 1085.62,449.008 1088.55,432.926C1091.47,416.844 1093.89,404.643 1095.8,396.32C1097.71,387.998 1098.78,383.275 1099.01,382.15C1100.58,377.202 1103.22,373.66 1106.94,371.523C1110.65,369.387 1114.75,368.881 1119.25,370.006C1126,371.805 1132.52,376.416 1138.82,383.838C1145.11,391.26 1147.7,397.894 1146.58,403.742C1146.35,404.867 1145.45,408.353 1143.88,414.201C1122.73,490.673 1116.1,542.967 1123.97,571.082C1126.9,570.632 1131.06,565.572 1136.45,555.9C1141.85,546.229 1146.13,535.769 1149.28,524.523C1150.4,520.025 1151.3,515.641 1151.98,511.367C1152.42,509.568 1153.44,508.105 1155.01,506.98C1156.81,505.631 1158.67,505.126 1160.58,505.463C1162.49,505.8 1164.06,506.813 1165.3,508.5C1166.54,510.187 1166.93,512.042 1166.48,514.066C1166.03,518.115 1165.13,522.499 1163.78,527.223C1162.21,533.295 1160.47,539.258 1158.56,545.105C1156.64,550.953 1154.23,557.25 1151.3,563.998C1148.38,570.746 1144.95,576.593 1141.01,581.541C1137.07,586.489 1132.97,589.863 1128.69,591.662C1126.22,592.787 1123.63,593.35 1120.94,593.35C1118.24,593.35 1115.43,592.674 1112.5,591.324C1102.83,589.075 1094.62,584.241 1087.87,576.818C1085.85,574.344 1084.05,571.082 1082.47,567.033C1076.4,579.179 1069.99,586.715 1063.24,589.639C1059.2,591.438 1054.7,592.338 1049.75,592.338C1035.58,592.338 1024.9,585.815 1017.7,572.77C1017.07,571.644 1016.48,570.493 1015.93,569.318C1014.01,574.295 1012.01,578.484 1009.94,581.879C1007.47,585.927 1004.32,589.751 1000.49,593.35C996.669,596.948 992.395,599.648 987.672,601.447C982.724,603.472 977.776,604.482 972.828,604.482C965.631,604.482 958.769,602.346 952.246,598.072C943.249,592.449 937.628,581.205 935.379,564.336C933.13,548.592 934.254,534.196 938.752,521.15C932.006,521.775 925.956,521.323 920.598,519.797C920.072,522.249 919.377,524.836 918.51,527.561C917.385,532.284 916.148,536.894 914.799,541.393C913.449,545.891 911.65,550.951 909.4,556.574C907.151,562.197 904.789,567.26 902.314,571.758C899.84,576.256 896.972,580.361 893.711,584.072C890.45,587.783 887.021,590.313 883.422,591.662C880.948,592.787 878.361,593.35 875.662,593.35C871.389,593.35 867.228,591.887 863.18,588.963C855.083,585.139 848.56,579.516 843.611,572.094C842.037,569.844 840.574,567.034 839.225,563.66C832.702,577.83 825.731,586.603 818.309,589.977C814.26,591.776 809.761,592.676 804.813,592.676C790.643,592.676 779.959,586.153 772.762,573.107C768.488,565.46 765.959,556.632 765.172,546.623C764.72,540.88 764.731,535.34 765.205,530.004C759.851,534.506 754.498,538.304 749.145,541.393C746.221,555.113 740.823,567.035 732.951,577.156C722.83,589.527 710.797,596.048 696.852,596.723C696.177,596.948 695.503,597.061 694.828,597.061C692.579,597.061 690.442,596.836 688.418,596.387C672.674,594.137 660.64,585.815 652.318,571.42C647.37,562.423 644.389,552.021 643.377,540.213C643.296,539.265 643.228,538.315 643.174,537.365C641.382,538.964 639.482,540.532 637.473,542.068C633.649,544.992 629.489,547.69 624.99,550.164C620.042,568.382 609.809,581.316 594.289,588.963C588.666,591.887 583.043,593.35 577.42,593.35C568.873,593.35 561.45,589.976 555.152,583.229C555.152,586.152 554.029,588.626 551.779,590.65C549.98,592 548.067,592.676 546.043,592.676C544.918,592.676 543.794,592.45 542.67,592C531.649,588.401 522.765,581.878 516.018,572.432C512.07,566.707 508.945,560.115 506.643,552.658C504.363,558.548 501.865,564.184 499.148,569.564C493.301,581.148 486.553,588.176 478.906,590.65C476.882,591.325 474.856,591.662 472.832,591.662C472.382,591.662 471.821,591.549 471.146,591.324C470.472,591.549 469.909,591.662 469.459,591.662C468.334,591.662 467.322,591.438 466.422,590.988C455.176,587.615 446.179,581.092 439.432,571.42C434.929,565.06 431.546,557.249 429.283,547.988C429.124,548.6 428.954,549.257 428.805,549.828C427.568,554.552 425.825,560.062 423.576,566.359C421.327,572.657 418.964,577.83 416.49,581.879C414.016,585.927 410.867,589.751 407.043,593.35C403.219,596.948 398.946,599.648 394.223,601.447C389.274,603.472 384.327,604.482 379.379,604.482ZM568.213,573.566C569.149,573.555 570.532,572.727 572.359,571.082C574.833,568.833 577.083,565.909 579.107,562.311C572.585,563.435 567.411,565.348 563.588,568.047C564.937,571.421 566.287,573.219 567.637,573.443C567.805,573.528 567.997,573.569 568.213,573.566ZM696.811,572.301C703.699,572.276 709.898,568.722 715.408,561.637C719.232,556.913 722.268,551.29 724.518,544.768C709.898,545.442 696.402,543.306 684.031,538.357C682.457,549.378 683.244,558.375 686.393,565.348C688.417,569.396 690.892,571.644 693.816,572.094C694.829,572.234 695.827,572.304 696.811,572.301ZM80.799,571.082C83.048,569.733 85.411,567.653 87.885,564.842C90.359,562.03 92.888,558.037 95.475,552.863C98.061,547.69 100.142,542.069 101.717,535.996C101.492,526.55 101.829,515.64 102.729,503.27C100.929,497.646 99.242,494.386 97.668,493.486C94.744,494.836 91.258,498.996 87.209,505.969C83.16,512.941 79.844,521.825 77.258,532.621C74.671,543.417 74.277,553.314 76.076,562.311C76.976,566.359 78.55,569.283 80.799,571.082ZM218.449,571.082C222.048,569.058 225.984,564.729 230.258,558.094C234.531,551.458 237.792,543.417 240.041,533.971C239.366,524.074 239.366,513.391 240.041,501.92C238.242,497.197 236.668,494.497 235.318,493.822C232.394,494.947 228.908,498.996 224.859,505.969C220.811,512.941 217.493,521.825 214.906,532.621C212.32,543.417 211.927,553.314 213.727,562.311C214.626,566.359 216.2,569.283 218.449,571.082ZM811.898,571.082C815.497,569.058 819.432,564.729 823.705,558.094C827.979,551.458 831.241,543.417 833.49,533.971C832.815,524.074 832.815,513.391 833.49,501.92C831.691,497.197 830.115,494.497 828.766,493.822C825.842,494.947 822.357,498.996 818.309,505.969C814.26,512.941 810.942,521.825 808.355,532.621C805.769,543.417 805.375,553.314 807.174,562.311C808.073,566.359 809.649,569.283 811.898,571.082ZM1056.83,571.082C1059.08,569.733 1061.45,567.653 1063.92,564.842C1066.39,562.03 1068.92,558.037 1071.51,552.863C1074.1,547.69 1076.18,542.069 1077.75,535.996C1077.53,526.55 1077.86,515.64 1078.76,503.27C1076.96,497.646 1075.28,494.386 1073.7,493.486C1070.78,494.836 1067.29,498.996 1063.24,505.969C1059.2,512.941 1055.88,521.825 1053.29,532.621C1050.7,543.417 1050.31,553.314 1052.11,562.311C1053.01,566.359 1054.59,569.283 1056.83,571.082ZM475.869,570.07C478.793,569.171 482.617,564.447 487.34,555.9C492.063,547.353 496,538.133 499.148,528.236C500.405,523.683 501.493,519.466 502.42,515.57C502.596,506.327 503.023,497.673 503.703,489.605C504.49,480.271 506.233,469.364 508.932,456.881C510.609,449.122 512.069,442.496 513.313,436.996C506.58,437.133 498.597,436.395 489.363,434.781C485.315,449.851 482.336,461.66 480.424,470.207C478.512,478.754 476.544,489.211 474.52,501.582C472.495,513.953 471.651,525.649 471.988,536.67C472.326,547.691 473.62,558.824 475.869,570.07ZM550.43,559.611C553.803,556.237 557.232,553.651 560.719,551.852C564.205,550.052 567.13,548.928 569.492,548.479C571.854,548.029 575.509,547.579 580.457,547.129C582.256,546.904 583.717,546.678 584.842,546.453C588.216,532.283 587.766,519.463 583.492,507.992C580.793,500.57 577.307,496.746 573.033,496.521L572.697,496.521C570.673,496.521 568.423,497.758 565.949,500.232C561.676,504.956 558.021,512.492 554.984,522.838C551.948,533.184 550.317,544.655 550.092,557.25C550.092,557.475 550.205,558.262 550.43,559.611ZM725.395,523.229C726.334,523.225 727.28,523.207 728.229,523.176C728.229,515.529 727.103,508.33 724.854,501.582C722.379,493.035 718.163,486.064 712.203,480.666C706.243,475.268 699.214,472.119 691.117,471.219L687.068,471.219C680.321,471.894 674.922,474.143 670.873,477.967C674.697,479.766 678.97,483.027 683.693,487.75C693.59,496.747 695.953,505.969 690.779,515.416C690.779,515.416 690.722,515.472 690.609,515.584C690.497,515.697 690.441,515.865 690.441,516.09C701.041,520.778 712.38,523.157 724.457,523.227C724.769,523.228 725.081,523.23 725.395,523.229ZM323.711,493.148C327.085,487.525 329.84,481.115 331.977,473.918C334.113,466.72 334.732,460.422 333.832,455.023C332.932,449.4 329.898,446.253 324.725,445.578L324.387,445.578C323.712,445.578 322.812,446.028 321.688,446.928C319.438,449.177 317.583,452.774 316.121,457.723C314.659,462.671 314.265,468.294 314.939,474.592C315.614,482.914 318.538,489.1 323.711,493.148ZM917.16,493.148C920.534,487.525 923.289,481.115 925.426,473.918C927.563,466.72 928.181,460.422 927.281,455.023C926.381,449.4 923.345,446.253 918.172,445.578L917.834,445.578C917.159,445.578 916.259,446.028 915.135,446.928C912.885,449.177 911.03,452.774 909.568,457.723C908.106,462.671 907.714,468.294 908.389,474.592C909.063,482.914 911.987,489.1 917.16,493.148Z" style="fill:rgb(55,142,142);"/>
        <path id="path2" d="M370.379,604.482C363.181,604.482 356.322,602.346 349.799,598.072C340.802,592.449 335.179,581.205 332.93,564.336C330.68,548.592 331.806,534.196 336.305,521.15C329.558,521.775 323.507,521.323 318.148,519.797C317.622,522.249 316.927,524.836 316.061,527.561C314.936,532.284 313.699,536.894 312.35,541.393C311,545.891 309.2,550.951 306.951,556.574C304.702,562.197 302.341,567.26 299.867,571.758C297.393,576.256 294.525,580.361 291.264,584.072C288.002,587.783 284.573,590.313 280.975,591.662C278.5,592.787 275.914,593.35 273.215,593.35C268.941,593.35 264.779,591.887 260.73,588.963C252.633,585.139 246.112,579.516 241.164,572.094C239.59,569.844 238.127,567.034 236.777,563.66C230.255,577.83 223.282,586.603 215.859,589.977C211.811,591.776 207.313,592.676 202.365,592.676C188.195,592.676 177.512,586.153 170.314,573.107C168.716,570.247 167.363,567.222 166.252,564.031C163.331,570.765 159.904,576.601 155.975,581.541C152.039,586.489 147.934,589.863 143.66,591.662C141.186,592.787 138.599,593.35 135.9,593.35C133.201,593.35 130.391,592.674 127.467,591.324C117.795,589.075 109.586,584.241 102.838,576.818C100.814,574.344 99.014,571.082 97.439,567.033C91.367,579.179 84.957,586.715 78.209,589.639C74.16,591.438 69.663,592.338 64.715,592.338C50.545,592.338 39.862,585.815 32.664,572.77C28.391,565.122 25.859,556.35 25.072,546.453C24.285,536.557 24.903,527.223 26.928,518.451C28.952,509.679 31.876,501.583 35.699,494.16C44.246,478.191 54.706,469.644 67.076,468.52C78.772,467.62 88.556,470.993 96.428,478.641C98.227,464.246 100.59,449.008 103.514,432.926C106.438,416.844 108.854,404.643 110.766,396.32C112.677,387.998 113.746,383.275 113.971,382.15C115.545,377.202 118.189,373.66 121.9,371.523C125.612,369.387 129.716,368.881 134.215,370.006C140.962,371.805 147.484,376.416 153.781,383.838C160.079,391.26 162.666,397.894 161.541,403.742C161.316,404.867 160.418,408.353 158.844,414.201C137.701,490.674 131.065,542.967 138.938,571.082C141.861,570.632 146.022,565.572 151.42,555.9C156.048,547.608 159.847,538.735 162.822,529.285C163.182,525.575 163.768,521.963 164.578,518.451C166.602,509.679 169.526,501.695 173.35,494.498C181.897,478.304 192.356,469.757 204.727,468.857C216.422,467.958 226.093,471.218 233.74,478.641C234.19,477.066 234.529,475.829 234.754,474.93C236.328,469.981 238.913,466.439 242.512,464.303C246.11,462.166 250.273,461.661 254.996,462.785C261.744,464.584 268.209,469.195 274.395,476.617C280.58,484.04 283.111,490.674 281.986,496.521C281.761,497.871 281.198,500.121 280.299,503.27C273.776,528.236 272.763,550.839 277.262,571.082C280.411,569.733 284.46,564.448 289.408,555.227C294.356,546.005 298.406,536.219 301.555,525.873C302.838,521.169 303.811,516.671 304.484,512.373C299.549,507.702 295.198,501.181 291.432,492.811C288.958,486.963 287.328,481.171 286.541,475.436C285.754,469.7 285.585,464.808 286.035,460.76C286.485,456.711 287.385,452.719 288.734,448.783C290.084,444.847 291.376,441.755 292.613,439.506C293.85,437.257 295.256,435.231 296.83,433.432C300.654,428.258 305.096,424.38 310.156,421.793C315.217,419.206 319.885,418.251 324.158,418.926C332.03,420.05 338.272,423.143 342.883,428.203C347.494,433.264 349.912,439.729 350.137,447.602C350.587,455.024 349.181,463.289 345.92,472.398C342.659,481.508 338.441,489.775 333.268,497.197C340.915,495.848 346.425,491.911 349.799,485.389C352.048,481.34 355.422,478.64 359.92,477.291C366.892,475.042 375.665,476.729 386.236,482.352C390.06,484.376 391.184,487.412 389.609,491.461C383.986,506.98 380.05,524.3 377.801,543.418C375.552,562.536 376.227,575.58 379.826,582.553C380.276,583.228 380.613,583.566 380.838,583.566C383.312,583.342 386.404,580.305 390.115,574.457C393.826,568.609 397.876,560.062 402.262,548.816C406.648,537.57 410.977,524.637 415.25,510.018C415.548,508.677 416.144,507.584 417.033,506.736C417.945,484.175 422.299,457.154 430.096,425.672C417.725,424.097 410.189,424.773 407.49,427.697C400.293,436.019 392.533,440.18 384.211,440.18C379.938,440.18 376.451,439.056 373.752,436.807C370.378,433.883 368.691,430.17 368.691,425.672C368.691,421.173 371.167,415.326 376.115,408.129C380.164,403.181 385.561,399.863 392.309,398.176C399.056,396.489 405.748,395.926 412.383,396.488C419.018,397.051 427.059,398.458 436.506,400.707C437.181,398.683 437.742,396.32 438.191,393.621C439.091,389.123 440.217,384.849 441.566,380.801C443.141,375.853 445.727,372.311 449.326,370.174C452.925,368.037 457.085,367.643 461.809,368.992C468.556,370.566 475.079,375.121 481.377,382.656C487.675,390.191 490.261,396.883 489.137,402.73C488.462,405.205 487.786,408.017 487.111,411.166C496.712,412.154 504.673,411.723 510.994,409.875C511.65,407.402 512.347,404.798 513.09,402.057C513.54,399.807 514.103,397.221 514.777,394.297C515.677,390.023 516.801,385.861 518.15,381.813C519.725,376.864 522.311,373.322 525.91,371.186C529.509,369.049 533.669,368.543 538.393,369.668C545.14,371.467 551.608,376.078 557.793,383.5C563.978,390.922 566.507,397.558 565.383,403.406C564.483,408.354 562.909,414.764 560.66,422.637C559.311,427.135 558.298,430.732 557.623,433.432C551.1,457.948 546.716,476.054 544.467,487.75C550.315,478.978 557.062,473.468 564.709,471.219C574.83,467.845 584.277,468.576 593.049,473.412C601.821,478.248 608.568,486.513 613.291,498.209C617.34,508.33 619.252,519.238 619.027,530.934C628.924,523.511 634.321,516.99 635.221,511.367C635.443,510.031 635.941,508.861 636.715,507.855C636.984,506.666 637.273,505.474 637.582,504.281C636.233,501.132 635.222,497.759 634.547,494.16C632.523,484.264 634.433,475.491 640.281,467.844C647.029,458.397 657.149,453 670.645,451.65C674.918,451.201 679.08,451.201 683.129,451.65C694.6,452.1 705.507,456.037 715.854,463.459C726.2,470.881 733.623,482.015 738.121,496.859C740.37,504.057 741.607,511.704 741.832,519.801C744.306,518.901 747.398,516.877 751.109,513.729C754.821,510.58 757.576,507.767 759.375,505.293C759.6,504.843 760.05,504.395 760.725,503.945C761.384,503.568 762.074,503.3 762.793,503.141C763.996,500.144 765.33,497.262 766.799,494.498C775.346,478.304 785.803,469.757 798.174,468.857C809.87,467.958 819.542,471.218 827.189,478.641C827.639,477.066 827.976,475.829 828.201,474.93C829.776,469.981 832.362,466.439 835.961,464.303C839.56,462.166 843.72,461.661 848.443,462.785C855.191,464.584 861.658,469.195 867.844,476.617C874.029,484.04 876.558,490.674 875.434,496.521C875.209,497.871 874.648,500.121 873.748,503.27C867.225,528.235 866.213,550.84 870.711,571.082C873.86,569.733 877.907,564.448 882.855,555.227C887.804,546.005 891.853,536.219 895.002,525.873C896.285,521.168 897.26,516.669 897.934,512.371C892.999,507.7 888.647,501.181 884.881,492.811C882.407,486.963 880.776,481.171 879.988,475.436C879.201,469.7 879.033,464.808 879.482,460.76C879.932,456.711 880.832,452.719 882.182,448.783C883.531,444.847 884.823,441.755 886.061,439.506C887.298,437.257 888.705,435.231 890.279,433.432C894.103,428.258 898.545,424.38 903.605,421.793C908.666,419.206 913.332,418.251 917.605,418.926C925.478,420.05 931.719,423.143 936.33,428.203C940.941,433.264 943.359,439.729 943.584,447.602C944.034,455.024 942.629,463.289 939.367,472.398C936.106,481.508 931.888,489.775 926.715,497.197C934.362,495.848 939.872,491.911 943.246,485.389C945.495,481.34 948.871,478.64 953.369,477.291C960.342,475.042 969.112,476.729 979.684,482.352C983.507,484.376 984.633,487.412 983.059,491.461C977.436,506.98 973.499,524.3 971.25,543.418C969.001,562.536 969.675,575.58 973.273,582.553C973.723,583.228 974.06,583.566 974.285,583.566C976.759,583.342 979.853,580.305 983.564,574.457C987.276,568.609 991.323,560.062 995.709,548.816C997.428,544.409 999.138,539.74 1000.84,534.814C1001.04,529.159 1001.75,523.704 1002.96,518.451C1004.99,509.679 1007.91,501.583 1011.73,494.16C1020.28,478.191 1030.74,469.644 1043.11,468.52C1054.81,467.62 1064.59,470.993 1072.46,478.641C1074.26,464.246 1076.62,449.008 1079.55,432.926C1082.47,416.844 1084.89,404.643 1086.8,396.32C1088.71,387.998 1089.78,383.275 1090.01,382.15C1091.58,377.202 1094.22,373.66 1097.94,371.523C1101.65,369.387 1105.75,368.881 1110.25,370.006C1117,371.805 1123.52,376.416 1129.82,383.838C1136.11,391.26 1138.7,397.894 1137.58,403.742C1137.35,404.867 1136.45,408.353 1134.88,414.201C1113.73,490.673 1107.1,542.967 1114.97,571.082C1117.9,570.632 1122.06,565.572 1127.45,555.9C1132.85,546.229 1137.13,535.769 1140.28,524.523C1141.4,520.025 1142.3,515.641 1142.98,511.367C1143.42,509.568 1144.44,508.105 1146.01,506.98C1147.81,505.631 1149.67,505.126 1151.58,505.463C1153.49,505.8 1155.06,506.813 1156.3,508.5C1157.54,510.187 1157.93,512.042 1157.48,514.066C1157.03,518.115 1156.13,522.499 1154.78,527.223C1153.21,533.295 1151.47,539.258 1149.56,545.105C1147.64,550.953 1145.23,557.25 1142.3,563.998C1139.38,570.746 1135.95,576.593 1132.01,581.541C1128.07,586.489 1123.97,589.863 1119.69,591.662C1117.22,592.787 1114.63,593.35 1111.94,593.35C1109.24,593.35 1106.43,592.674 1103.5,591.324C1093.83,589.075 1085.62,584.241 1078.87,576.818C1076.85,574.344 1075.05,571.082 1073.47,567.033C1067.4,579.179 1060.99,586.715 1054.24,589.639C1050.2,591.438 1045.7,592.338 1040.75,592.338C1026.58,592.338 1015.9,585.815 1008.7,572.77C1008.07,571.644 1007.48,570.493 1006.93,569.318C1005.01,574.295 1003.01,578.484 1000.94,581.879C998.465,585.927 995.316,589.751 991.492,593.35C987.669,596.948 983.395,599.648 978.672,601.447C973.724,603.472 968.776,604.482 963.828,604.482C956.631,604.482 949.769,602.346 943.246,598.072C934.249,592.449 928.628,581.205 926.379,564.336C924.13,548.592 925.254,534.196 929.752,521.15C923.006,521.775 916.956,521.323 911.598,519.797C911.072,522.249 910.377,524.836 909.51,527.561C908.385,532.284 907.148,536.894 905.799,541.393C904.449,545.891 902.65,550.951 900.4,556.574C898.151,562.197 895.789,567.26 893.314,571.758C890.84,576.256 887.972,580.361 884.711,584.072C881.45,587.783 878.021,590.313 874.422,591.662C871.948,592.787 869.361,593.35 866.662,593.35C862.389,593.35 858.228,591.887 854.18,588.963C846.083,585.139 839.56,579.516 834.611,572.094C833.037,569.844 831.574,567.034 830.225,563.66C823.702,577.83 816.731,586.603 809.309,589.977C805.26,591.776 800.761,592.676 795.813,592.676C781.643,592.676 770.959,586.153 763.762,573.107C759.488,565.46 756.959,556.632 756.172,546.623C755.72,540.88 755.731,535.34 756.205,530.004C750.851,534.506 745.498,538.304 740.145,541.393C737.221,555.113 731.823,567.035 723.951,577.156C713.83,589.527 701.797,596.048 687.852,596.723C687.177,596.948 686.503,597.061 685.828,597.061C683.579,597.061 681.442,596.836 679.418,596.387C663.674,594.137 651.64,585.815 643.318,571.42C638.37,562.423 635.389,552.021 634.377,540.213C634.296,539.265 634.228,538.315 634.174,537.365C632.382,538.964 630.482,540.532 628.473,542.068C624.649,544.992 620.489,547.69 615.99,550.164C611.042,568.382 600.809,581.316 585.289,588.963C579.666,591.887 574.043,593.35 568.42,593.35C559.873,593.35 552.45,589.976 546.152,583.229C546.152,586.152 545.029,588.626 542.779,590.65C540.98,592 539.067,592.676 537.043,592.676C535.918,592.676 534.794,592.45 533.67,592C522.649,588.401 513.765,581.878 507.018,572.432C503.069,566.707 499.945,560.115 497.643,552.658C495.363,558.548 492.865,564.184 490.148,569.564C484.301,581.148 477.553,588.176 469.906,590.65C467.882,591.325 465.856,591.662 463.832,591.662C463.382,591.662 462.821,591.549 462.146,591.324C461.472,591.549 460.909,591.662 460.459,591.662C459.334,591.662 458.322,591.438 457.422,590.988C446.176,587.615 437.179,581.092 430.432,571.42C425.929,565.06 422.546,557.249 420.283,547.988C420.124,548.6 419.954,549.257 419.805,549.828C418.568,554.552 416.825,560.062 414.576,566.359C412.327,572.657 409.964,577.83 407.49,581.879C405.016,585.927 401.867,589.751 398.043,593.35C394.219,596.948 389.946,599.648 385.223,601.447C380.274,603.472 375.327,604.482 370.379,604.482ZM559.213,573.566C560.149,573.555 561.532,572.727 563.359,571.082C565.833,568.833 568.083,565.909 570.107,562.311C563.585,563.435 558.411,565.348 554.588,568.047C555.937,571.421 557.287,573.219 558.637,573.443C558.805,573.528 558.997,573.569 559.213,573.566ZM687.811,572.301C694.699,572.276 700.898,568.722 706.408,561.637C710.232,556.913 713.268,551.29 715.518,544.768C700.898,545.442 687.402,543.306 675.031,538.357C673.457,549.378 674.244,558.375 677.393,565.348C679.417,569.396 681.892,571.644 684.816,572.094C685.829,572.234 686.827,572.304 687.811,572.301ZM71.799,571.082C74.048,569.733 76.411,567.653 78.885,564.842C81.359,562.03 83.888,558.037 86.475,552.863C89.061,547.69 91.142,542.069 92.717,535.996C92.492,526.55 92.829,515.64 93.729,503.27C91.929,497.646 90.242,494.386 88.668,493.486C85.744,494.836 82.258,498.996 78.209,505.969C74.16,512.941 70.844,521.825 68.258,532.621C65.671,543.417 65.277,553.314 67.076,562.311C67.976,566.359 69.55,569.283 71.799,571.082ZM209.449,571.082C213.048,569.058 216.984,564.729 221.258,558.094C225.531,551.458 228.792,543.417 231.041,533.971C230.366,524.074 230.366,513.391 231.041,501.92C229.242,497.197 227.668,494.497 226.318,493.822C223.394,494.947 219.908,498.996 215.859,505.969C211.811,512.941 208.493,521.825 205.906,532.621C203.32,543.417 202.927,553.314 204.727,562.311C205.626,566.359 207.2,569.283 209.449,571.082ZM802.898,571.082C806.497,569.058 810.432,564.729 814.705,558.094C818.979,551.458 822.241,543.417 824.49,533.971C823.815,524.074 823.815,513.391 824.49,501.92C822.691,497.197 821.115,494.497 819.766,493.822C816.842,494.947 813.357,498.996 809.309,505.969C805.26,512.941 801.942,521.825 799.355,532.621C796.769,543.417 796.375,553.314 798.174,562.311C799.073,566.359 800.649,569.283 802.898,571.082ZM1047.83,571.082C1050.08,569.733 1052.45,567.653 1054.92,564.842C1057.39,562.03 1059.92,558.037 1062.51,552.863C1065.1,547.69 1067.18,542.069 1068.75,535.996C1068.53,526.55 1068.86,515.64 1069.76,503.27C1067.96,497.646 1066.28,494.386 1064.7,493.486C1061.78,494.836 1058.29,498.996 1054.24,505.969C1050.2,512.941 1046.88,521.825 1044.29,532.621C1041.7,543.417 1041.31,553.314 1043.11,562.311C1044.01,566.359 1045.59,569.283 1047.83,571.082ZM466.869,570.07C469.793,569.171 473.617,564.447 478.34,555.9C483.063,547.353 487,538.133 490.148,528.236C491.405,523.683 492.493,519.466 493.42,515.57C493.596,506.327 494.023,497.673 494.703,489.605C495.49,480.271 497.233,469.364 499.932,456.881C501.609,449.122 503.069,442.496 504.313,436.996C497.58,437.133 489.597,436.395 480.363,434.781C476.315,449.851 473.336,461.66 471.424,470.207C469.512,478.754 467.544,489.211 465.52,501.582C463.495,513.953 462.651,525.649 462.988,536.67C463.326,547.691 464.62,558.824 466.869,570.07ZM541.43,559.611C544.803,556.237 548.232,553.651 551.719,551.852C555.205,550.052 558.13,548.928 560.492,548.479C562.854,548.029 566.509,547.579 571.457,547.129C573.256,546.904 574.717,546.678 575.842,546.453C579.216,532.283 578.766,519.463 574.492,507.992C571.793,500.57 568.307,496.746 564.033,496.521L563.697,496.521C561.673,496.521 559.423,497.758 556.949,500.232C552.676,504.956 549.021,512.492 545.984,522.838C542.948,533.184 541.317,544.655 541.092,557.25C541.092,557.475 541.205,558.262 541.43,559.611ZM716.395,523.229C717.334,523.225 718.28,523.207 719.229,523.176C719.229,515.529 718.103,508.33 715.854,501.582C713.379,493.035 709.163,486.064 703.203,480.666C697.243,475.268 690.214,472.119 682.117,471.219L678.068,471.219C671.321,471.894 665.922,474.143 661.873,477.967C665.697,479.766 669.97,483.027 674.693,487.75C684.59,496.747 686.953,505.969 681.779,515.416C681.779,515.416 681.722,515.472 681.609,515.584C681.497,515.697 681.441,515.865 681.441,516.09C692.041,520.778 703.38,523.157 715.457,523.227C715.769,523.228 716.081,523.23 716.395,523.229ZM314.711,493.148C318.085,487.525 320.84,481.115 322.977,473.918C325.113,466.72 325.732,460.422 324.832,455.023C323.932,449.4 320.898,446.253 315.725,445.578L315.387,445.578C314.712,445.578 313.812,446.028 312.688,446.928C310.438,449.177 308.583,452.774 307.121,457.723C305.659,462.671 305.265,468.294 305.939,474.592C306.614,482.914 309.538,489.1 314.711,493.148ZM908.16,493.148C911.534,487.525 914.289,481.115 916.426,473.918C918.563,466.72 919.181,460.422 918.281,455.023C917.381,449.4 914.345,446.253 909.172,445.578L908.834,445.578C908.159,445.578 907.259,446.028 906.135,446.928C903.885,449.177 902.03,452.774 900.568,457.723C899.106,462.671 898.714,468.294 899.389,474.592C900.063,482.914 902.987,489.1 908.16,493.148Z" style="fill:rgb(242,123,110);"/>
        <path id="path3" d="M362.379,604.482C355.181,604.482 348.322,602.346 341.799,598.072C332.802,592.449 327.179,581.205 324.93,564.336C322.68,548.592 323.806,534.196 328.305,521.15C321.558,521.775 315.507,521.323 310.148,519.797C309.622,522.249 308.927,524.836 308.061,527.561C306.936,532.284 305.699,536.894 304.35,541.393C303,545.891 301.2,550.951 298.951,556.574C296.702,562.197 294.341,567.26 291.867,571.758C289.393,576.256 286.525,580.361 283.264,584.072C280.002,587.783 276.573,590.313 272.975,591.662C270.5,592.787 267.914,593.35 265.215,593.35C260.941,593.35 256.779,591.887 252.73,588.963C244.633,585.139 238.112,579.516 233.164,572.094C231.59,569.844 230.127,567.034 228.777,563.66C222.255,577.83 215.282,586.603 207.859,589.977C203.811,591.776 199.313,592.676 194.365,592.676C180.195,592.676 169.512,586.153 162.314,573.107C160.716,570.247 159.363,567.222 158.252,564.031C155.331,570.765 151.904,576.601 147.975,581.541C144.039,586.489 139.934,589.863 135.66,591.662C133.186,592.787 130.599,593.35 127.9,593.35C125.201,593.35 122.391,592.674 119.467,591.324C109.795,589.075 101.586,584.241 94.838,576.818C92.814,574.344 91.014,571.082 89.439,567.033C83.367,579.179 76.957,586.715 70.209,589.639C66.16,591.438 61.663,592.338 56.715,592.338C42.545,592.338 31.862,585.815 24.664,572.77C20.391,565.122 17.859,556.35 17.072,546.453C16.285,536.557 16.903,527.223 18.928,518.451C20.952,509.679 23.876,501.583 27.699,494.16C36.246,478.191 46.706,469.644 59.076,468.52C70.772,467.62 80.556,470.993 88.428,478.641C90.227,464.246 92.59,449.008 95.514,432.926C98.438,416.844 100.854,404.643 102.766,396.32C104.677,387.998 105.746,383.275 105.971,382.15C107.545,377.202 110.189,373.66 113.9,371.523C117.612,369.387 121.716,368.881 126.215,370.006C132.962,371.805 139.484,376.416 145.781,383.838C152.079,391.26 154.666,397.894 153.541,403.742C153.316,404.867 152.418,408.353 150.844,414.201C129.701,490.674 123.065,542.967 130.938,571.082C133.861,570.632 138.022,565.572 143.42,555.9C148.048,547.608 151.847,538.735 154.822,529.285C155.182,525.575 155.768,521.963 156.578,518.451C158.602,509.679 161.526,501.695 165.35,494.498C173.897,478.304 184.356,469.757 196.727,468.857C208.422,467.958 218.093,471.218 225.74,478.641C226.19,477.066 226.529,475.829 226.754,474.93C228.328,469.981 230.913,466.439 234.512,464.303C238.11,462.166 242.273,461.661 246.996,462.785C253.744,464.584 260.209,469.195 266.395,476.617C272.58,484.04 275.111,490.674 273.986,496.521C273.761,497.871 273.198,500.121 272.299,503.27C265.776,528.236 264.763,550.839 269.262,571.082C272.411,569.733 276.46,564.448 281.408,555.227C286.356,546.005 290.406,536.219 293.555,525.873C294.838,521.169 295.811,516.671 296.484,512.373C291.549,507.702 287.198,501.181 283.432,492.811C280.958,486.963 279.328,481.171 278.541,475.436C277.754,469.7 277.585,464.808 278.035,460.76C278.485,456.711 279.385,452.719 280.734,448.783C282.084,444.847 283.376,441.755 284.613,439.506C285.85,437.257 287.256,435.231 288.83,433.432C292.654,428.258 297.096,424.38 302.156,421.793C307.217,419.206 311.885,418.251 316.158,418.926C324.03,420.05 330.272,423.143 334.883,428.203C339.494,433.264 341.912,439.729 342.137,447.602C342.587,455.024 341.181,463.289 337.92,472.398C334.659,481.508 330.441,489.775 325.268,497.197C332.915,495.848 338.425,491.911 341.799,485.389C344.048,481.34 347.422,478.64 351.92,477.291C358.892,475.042 367.665,476.729 378.236,482.352C382.06,484.376 383.184,487.412 381.609,491.461C375.986,506.98 372.05,524.3 369.801,543.418C367.552,562.536 368.227,575.58 371.826,582.553C372.276,583.228 372.613,583.566 372.838,583.566C375.312,583.342 378.404,580.305 382.115,574.457C385.826,568.609 389.876,560.062 394.262,548.816C398.648,537.57 402.977,524.637 407.25,510.018C407.548,508.677 408.144,507.584 409.033,506.736C409.945,484.175 414.299,457.154 422.096,425.672C409.725,424.097 402.189,424.773 399.49,427.697C392.293,436.019 384.533,440.18 376.211,440.18C371.937,440.18 368.451,439.056 365.752,436.807C362.378,433.883 360.691,430.17 360.691,425.672C360.691,421.173 363.167,415.326 368.115,408.129C372.164,403.181 377.561,399.863 384.309,398.176C391.056,396.489 397.748,395.926 404.383,396.488C411.018,397.051 419.059,398.458 428.506,400.707C429.181,398.683 429.742,396.32 430.191,393.621C431.091,389.123 432.217,384.849 433.566,380.801C435.141,375.853 437.727,372.311 441.326,370.174C444.925,368.037 449.085,367.643 453.809,368.992C460.556,370.566 467.079,375.121 473.377,382.656C479.675,390.191 482.261,396.883 481.137,402.73C480.462,405.205 479.786,408.017 479.111,411.166C488.712,412.154 496.673,411.723 502.994,409.875C503.65,407.402 504.347,404.798 505.09,402.057C505.54,399.807 506.103,397.221 506.777,394.297C507.677,390.023 508.801,385.861 510.15,381.813C511.725,376.864 514.311,373.322 517.91,371.186C521.509,369.049 525.669,368.543 530.393,369.668C537.14,371.467 543.608,376.078 549.793,383.5C555.978,390.922 558.507,397.558 557.383,403.406C556.483,408.354 554.909,414.764 552.66,422.637C551.311,427.135 550.298,430.732 549.623,433.432C543.1,457.948 538.716,476.054 536.467,487.75C542.315,478.978 549.062,473.468 556.709,471.219C566.83,467.845 576.277,468.576 585.049,473.412C593.821,478.248 600.568,486.513 605.291,498.209C609.34,508.33 611.252,519.238 611.027,530.934C620.924,523.511 626.321,516.99 627.221,511.367C627.443,510.031 627.941,508.861 628.715,507.855C628.984,506.666 629.273,505.474 629.582,504.281C628.233,501.132 627.222,497.759 626.547,494.16C624.523,484.264 626.433,475.491 632.281,467.844C639.029,458.397 649.149,453 662.645,451.65C666.918,451.201 671.08,451.201 675.129,451.65C686.6,452.1 697.507,456.037 707.854,463.459C718.2,470.881 725.623,482.015 730.121,496.859C732.37,504.057 733.607,511.704 733.832,519.801C736.306,518.901 739.398,516.877 743.109,513.729C746.821,510.58 749.576,507.767 751.375,505.293C751.6,504.843 752.05,504.395 752.725,503.945C753.384,503.568 754.074,503.3 754.793,503.141C755.996,500.144 757.33,497.262 758.799,494.498C767.346,478.304 777.803,469.757 790.174,468.857C801.87,467.958 811.542,471.218 819.189,478.641C819.639,477.066 819.976,475.829 820.201,474.93C821.776,469.981 824.362,466.439 827.961,464.303C831.56,462.166 835.72,461.661 840.443,462.785C847.191,464.584 853.658,469.195 859.844,476.617C866.029,484.04 868.558,490.674 867.434,496.521C867.209,497.871 866.648,500.121 865.748,503.27C859.225,528.235 858.213,550.84 862.711,571.082C865.86,569.733 869.907,564.448 874.855,555.227C879.804,546.005 883.853,536.219 887.002,525.873C888.285,521.168 889.26,516.669 889.934,512.371C884.999,507.7 880.647,501.181 876.881,492.811C874.407,486.963 872.776,481.171 871.988,475.436C871.201,469.7 871.033,464.808 871.482,460.76C871.932,456.711 872.832,452.719 874.182,448.783C875.531,444.847 876.823,441.755 878.061,439.506C879.298,437.257 880.705,435.231 882.279,433.432C886.103,428.258 890.545,424.38 895.605,421.793C900.666,419.206 905.332,418.251 909.605,418.926C917.478,420.05 923.719,423.143 928.33,428.203C932.941,433.264 935.359,439.729 935.584,447.602C936.034,455.024 934.629,463.289 931.367,472.398C928.106,481.508 923.888,489.775 918.715,497.197C926.362,495.848 931.872,491.911 935.246,485.389C937.495,481.34 940.871,478.64 945.369,477.291C952.342,475.042 961.112,476.729 971.684,482.352C975.507,484.376 976.633,487.412 975.059,491.461C969.436,506.98 965.499,524.3 963.25,543.418C961.001,562.536 961.675,575.58 965.273,582.553C965.723,583.228 966.06,583.566 966.285,583.566C968.759,583.342 971.853,580.305 975.564,574.457C979.276,568.609 983.323,560.062 987.709,548.816C989.428,544.409 991.138,539.74 992.84,534.814C993.044,529.159 993.751,523.704 994.963,518.451C996.987,509.679 999.911,501.583 1003.73,494.16C1012.28,478.191 1022.74,469.644 1035.11,468.52C1046.81,467.62 1056.59,470.993 1064.46,478.641C1066.26,464.246 1068.62,449.008 1071.55,432.926C1074.47,416.844 1076.89,404.643 1078.8,396.32C1080.71,387.998 1081.78,383.275 1082.01,382.15C1083.58,377.202 1086.22,373.66 1089.94,371.523C1093.65,369.387 1097.75,368.881 1102.25,370.006C1109,371.805 1115.52,376.416 1121.82,383.838C1128.11,391.26 1130.7,397.894 1129.58,403.742C1129.35,404.867 1128.45,408.353 1126.88,414.201C1105.73,490.673 1099.1,542.967 1106.97,571.082C1109.9,570.632 1114.06,565.572 1119.45,555.9C1124.85,546.229 1129.13,535.769 1132.28,524.523C1133.4,520.025 1134.3,515.641 1134.98,511.367C1135.42,509.568 1136.44,508.105 1138.01,506.98C1139.81,505.631 1141.67,505.126 1143.58,505.463C1145.49,505.8 1147.06,506.813 1148.3,508.5C1149.54,510.187 1149.93,512.042 1149.48,514.066C1149.03,518.115 1148.13,522.499 1146.78,527.223C1145.21,533.295 1143.47,539.258 1141.56,545.105C1139.64,550.953 1137.23,557.25 1134.3,563.998C1131.38,570.746 1127.95,576.593 1124.01,581.541C1120.07,586.489 1115.97,589.863 1111.69,591.662C1109.22,592.787 1106.63,593.35 1103.94,593.35C1101.24,593.35 1098.43,592.674 1095.5,591.324C1085.83,589.075 1077.62,584.241 1070.87,576.818C1068.85,574.344 1067.05,571.082 1065.47,567.033C1059.4,579.179 1052.99,586.715 1046.24,589.639C1042.2,591.438 1037.7,592.338 1032.75,592.338C1018.58,592.338 1007.9,585.815 1000.7,572.77C1000.07,571.644 999.479,570.493 998.926,569.318C997.009,574.295 995.014,578.484 992.939,581.879C990.465,585.927 987.316,589.751 983.492,593.35C979.669,596.948 975.395,599.648 970.672,601.447C965.724,603.472 960.776,604.482 955.828,604.482C948.631,604.482 941.769,602.346 935.246,598.072C926.249,592.449 920.628,581.205 918.379,564.336C916.13,548.592 917.254,534.196 921.752,521.15C915.006,521.775 908.956,521.323 903.598,519.797C903.072,522.249 902.377,524.836 901.51,527.561C900.385,532.284 899.148,536.894 897.799,541.393C896.449,545.891 894.65,550.951 892.4,556.574C890.151,562.197 887.789,567.26 885.314,571.758C882.84,576.256 879.972,580.361 876.711,584.072C873.45,587.783 870.021,590.313 866.422,591.662C863.948,592.787 861.361,593.35 858.662,593.35C854.389,593.35 850.228,591.887 846.18,588.963C838.083,585.139 831.56,579.516 826.611,572.094C825.037,569.844 823.574,567.034 822.225,563.66C815.702,577.83 808.731,586.603 801.309,589.977C797.26,591.776 792.761,592.676 787.813,592.676C773.643,592.676 762.959,586.153 755.762,573.107C751.488,565.46 748.959,556.632 748.172,546.623C747.72,540.88 747.731,535.34 748.205,530.004C742.851,534.506 737.498,538.304 732.145,541.393C729.221,555.113 723.823,567.035 715.951,577.156C705.83,589.527 693.797,596.048 679.852,596.723C679.177,596.948 678.503,597.061 677.828,597.061C675.579,597.061 673.442,596.836 671.418,596.387C655.674,594.137 643.64,585.815 635.318,571.42C630.37,562.423 627.389,552.021 626.377,540.213C626.296,539.265 626.228,538.315 626.174,537.365C624.382,538.964 622.482,540.532 620.473,542.068C616.649,544.992 612.489,547.69 607.99,550.164C603.042,568.382 592.809,581.316 577.289,588.963C571.666,591.887 566.043,593.35 560.42,593.35C551.873,593.35 544.45,589.976 538.152,583.229C538.152,586.152 537.029,588.626 534.779,590.65C532.98,592 531.067,592.676 529.043,592.676C527.918,592.676 526.794,592.45 525.67,592C514.649,588.401 505.765,581.878 499.018,572.432C495.069,566.707 491.945,560.115 489.643,552.658C487.363,558.548 484.865,564.184 482.148,569.564C476.301,581.148 469.553,588.176 461.906,590.65C459.882,591.325 457.856,591.662 455.832,591.662C455.382,591.662 454.821,591.549 454.146,591.324C453.472,591.549 452.909,591.662 452.459,591.662C451.334,591.662 450.322,591.438 449.422,590.988C438.176,587.615 429.179,581.092 422.432,571.42C417.929,565.06 414.546,557.249 412.283,547.988C412.124,548.6 411.954,549.257 411.805,549.828C410.568,554.552 408.825,560.062 406.576,566.359C404.327,572.657 401.964,577.83 399.49,581.879C397.016,585.927 393.867,589.751 390.043,593.35C386.219,596.948 381.946,599.648 377.223,601.447C372.274,603.472 367.327,604.482 362.379,604.482ZM551.213,573.566C552.149,573.555 553.532,572.727 555.359,571.082C557.833,568.833 560.083,565.909 562.107,562.311C555.585,563.435 550.411,565.348 546.588,568.047C547.937,571.421 549.287,573.219 550.637,573.443C550.805,573.528 550.997,573.569 551.213,573.566ZM679.811,572.301C686.699,572.276 692.898,568.722 698.408,561.637C702.232,556.913 705.268,551.29 707.518,544.768C692.898,545.442 679.402,543.306 667.031,538.357C665.457,549.378 666.244,558.375 669.393,565.348C671.417,569.396 673.892,571.644 676.816,572.094C677.829,572.234 678.827,572.304 679.811,572.301ZM63.799,571.082C66.048,569.733 68.411,567.653 70.885,564.842C73.359,562.03 75.888,558.037 78.475,552.863C81.061,547.69 83.142,542.069 84.717,535.996C84.492,526.55 84.829,515.64 85.729,503.27C83.929,497.646 82.242,494.386 80.668,493.486C77.744,494.836 74.258,498.996 70.209,505.969C66.16,512.941 62.844,521.825 60.258,532.621C57.671,543.417 57.277,553.314 59.076,562.311C59.976,566.359 61.55,569.283 63.799,571.082ZM201.449,571.082C205.048,569.058 208.984,564.729 213.258,558.094C217.531,551.458 220.792,543.417 223.041,533.971C222.366,524.074 222.366,513.391 223.041,501.92C221.242,497.197 219.668,494.497 218.318,493.822C215.394,494.947 211.908,498.996 207.859,505.969C203.811,512.941 200.493,521.825 197.906,532.621C195.32,543.417 194.927,553.314 196.727,562.311C197.626,566.359 199.2,569.283 201.449,571.082ZM794.898,571.082C798.497,569.058 802.432,564.729 806.705,558.094C810.979,551.458 814.241,543.417 816.49,533.971C815.815,524.074 815.815,513.391 816.49,501.92C814.691,497.197 813.115,494.497 811.766,493.822C808.842,494.947 805.357,498.996 801.309,505.969C797.26,512.941 793.942,521.825 791.355,532.621C788.769,543.417 788.375,553.314 790.174,562.311C791.073,566.359 792.649,569.283 794.898,571.082ZM1039.83,571.082C1042.08,569.733 1044.45,567.653 1046.92,564.842C1049.39,562.03 1051.92,558.037 1054.51,552.863C1057.1,547.69 1059.18,542.069 1060.75,535.996C1060.53,526.55 1060.86,515.64 1061.76,503.27C1059.96,497.646 1058.28,494.386 1056.7,493.486C1053.78,494.836 1050.29,498.996 1046.24,505.969C1042.2,512.941 1038.88,521.825 1036.29,532.621C1033.7,543.417 1033.31,553.314 1035.11,562.311C1036.01,566.359 1037.59,569.283 1039.83,571.082ZM458.869,570.07C461.793,569.171 465.617,564.447 470.34,555.9C475.063,547.353 479,538.133 482.148,528.236C483.405,523.683 484.493,519.466 485.42,515.57C485.596,506.327 486.023,497.673 486.703,489.605C487.49,480.271 489.233,469.364 491.932,456.881C493.609,449.122 495.069,442.496 496.313,436.996C489.58,437.133 481.597,436.395 472.363,434.781C468.315,449.851 465.336,461.66 463.424,470.207C461.512,478.754 459.544,489.211 457.52,501.582C455.495,513.953 454.651,525.649 454.988,536.67C455.326,547.691 456.62,558.824 458.869,570.07ZM533.43,559.611C536.803,556.237 540.232,553.651 543.719,551.852C547.205,550.052 550.13,548.928 552.492,548.479C554.854,548.029 558.509,547.579 563.457,547.129C565.256,546.904 566.717,546.678 567.842,546.453C571.216,532.283 570.766,519.463 566.492,507.992C563.793,500.57 560.307,496.746 556.033,496.521L555.697,496.521C553.673,496.521 551.423,497.758 548.949,500.232C544.676,504.956 541.021,512.492 537.984,522.838C534.948,533.184 533.317,544.655 533.092,557.25C533.092,557.475 533.205,558.262 533.43,559.611ZM708.395,523.229C709.334,523.225 710.28,523.207 711.229,523.176C711.229,515.529 710.103,508.33 707.854,501.582C705.379,493.035 701.163,486.064 695.203,480.666C689.243,475.268 682.214,472.119 674.117,471.219L670.068,471.219C663.321,471.894 657.922,474.143 653.873,477.967C657.697,479.766 661.97,483.027 666.693,487.75C676.59,496.747 678.953,505.969 673.779,515.416C673.779,515.416 673.722,515.472 673.609,515.584C673.497,515.697 673.441,515.865 673.441,516.09C684.041,520.778 695.38,523.157 707.457,523.227C707.769,523.228 708.081,523.23 708.395,523.229ZM306.711,493.148C310.085,487.525 312.84,481.115 314.977,473.918C317.113,466.72 317.732,460.422 316.832,455.023C315.932,449.4 312.898,446.253 307.725,445.578L307.387,445.578C306.712,445.578 305.812,446.028 304.688,446.928C302.438,449.177 300.583,452.774 299.121,457.723C297.659,462.671 297.265,468.294 297.939,474.592C298.614,482.914 301.538,489.1 306.711,493.148ZM900.16,493.148C903.534,487.525 906.289,481.115 908.426,473.918C910.563,466.72 911.181,460.422 910.281,455.023C909.381,449.4 906.345,446.253 901.172,445.578L900.834,445.578C900.159,445.578 899.259,446.028 898.135,446.928C895.885,449.177 894.03,452.774 892.568,457.723C891.106,462.671 890.714,468.294 891.389,474.592C892.063,482.914 894.987,489.1 900.16,493.148Z" style="fill:rgb(237,157,90);"/>
    </g>
</svg>
